<?xml version="1.0" encoding="utf-8"?>
<!-- Generator: Adobe Illustrator 27.9.0, SVG Export Plug-In . SVG Version: 6.00 Build 0)  -->
<svg version="1.1" id="Layer_1" xmlns="http://www.w3.org/2000/svg" xmlns:xlink="http://www.w3.org/1999/xlink" x="0px" y="0px"
	 viewBox="0 0 128 128" style="enable-background:new 0 0 128 128;" xml:space="preserve">
<style type="text/css">
	.st0{fill-rule:evenodd;clip-rule:evenodd;fill:none;}
	.st1{fill-rule:evenodd;clip-rule:evenodd;fill:#F1892D;}
	.st2{fill:#C5D3E2;}
	.st3{fill:#39D5FF;}
	.st4{fill-rule:evenodd;clip-rule:evenodd;fill:#F9BF3B;}
	.st5{fill-rule:evenodd;clip-rule:evenodd;fill:#F5AB35;}
	.st6{fill-rule:evenodd;clip-rule:evenodd;fill:#39D5FF;}
	.st7{fill-rule:evenodd;clip-rule:evenodd;fill:#C5D3E2;}
	.st8{fill:#FFFFFF;}
	.st9{fill-rule:evenodd;clip-rule:evenodd;fill:#29C5FF;}
	.st10{fill-rule:evenodd;clip-rule:evenodd;fill:#0057A0;}
	.st11{fill:#F1892D;}
	.st12{fill-rule:evenodd;clip-rule:evenodd;fill:#ACBAC9;}
	.st13{fill-rule:evenodd;clip-rule:evenodd;fill:#FFFFFF;}
	.st14{fill-rule:evenodd;clip-rule:evenodd;fill:#D87400;}
	.st15{fill-rule:evenodd;clip-rule:evenodd;fill:#003780;}
	.st16{fill-rule:evenodd;clip-rule:evenodd;fill:#19B5FE;}
	.st17{fill-rule:evenodd;clip-rule:evenodd;fill:#1297E0;}
	.st18{fill:#0057A0;}
	.st19{fill:#F9BF3B;}
	.st20{fill-rule:evenodd;clip-rule:evenodd;fill:#DFECFA;}
	.st21{fill-rule:evenodd;clip-rule:evenodd;fill:#0077C0;}
	.st22{fill-rule:evenodd;clip-rule:evenodd;fill:#E6EEF7;}
	.st23{fill-rule:evenodd;clip-rule:evenodd;fill:#DBC2A4;}
	.st24{fill-rule:evenodd;clip-rule:evenodd;fill:#FFE3C1;}
	.st25{fill-rule:evenodd;clip-rule:evenodd;fill:#353535;}
	.st26{fill-rule:evenodd;clip-rule:evenodd;fill:#3C4A59;}
	.st27{fill-rule:evenodd;clip-rule:evenodd;fill:#6C7A89;}
	.st28{fill-rule:evenodd;clip-rule:evenodd;fill:#4C5A69;}
</style>
<rect class="st0" width="128" height="128"/>
<g id="_2957227661952">
	<g>
		<path class="st16" d="M52.6,55.4c11.9-10.8,29.8-13.2,44.5-4.7c18.2,10.5,24.4,33.7,13.9,51.9c-10.5,18.2-33.7,24.4-51.9,13.9
			c-8.7-5-14.7-13-17.4-22l0.4-0.2c4.3-2.3,8.3-4.4,10.9-8.6c3.2-5.3,4-10.6,3.2-16.7C55.6,64.5,54.2,59.9,52.6,55.4L52.6,55.4z"/>
		<path class="st6" d="M53.3,57.4C64.6,46.7,82,44.1,96.1,52.3c17.2,10,23.2,32,13.2,49.3c-10,17.2-32,23.2-49.3,13.2
			c-8.4-4.9-14.1-12.6-16.6-21.2c3.8-2,7.2-4.1,9.6-7.9c3.2-5.3,4-10.6,3.2-16.7C55.7,65.2,54.6,61.2,53.3,57.4L53.3,57.4z"/>
		<path class="st16" d="M59.4,72.8c5.9-10.3,19.1-13.8,29.4-7.9c10.3,5.9,13.8,19.1,7.9,29.4s-19.1,13.8-29.4,7.9
			C57,96.2,53.5,83.1,59.4,72.8L59.4,72.8z"/>
		<path class="st1" d="M51.6,120l-13-2c-2.2-0.3-3.8-2.2-3.9-4.4l-0.2-15.4c-0.1-6.4,11.3-6.7,15.9-14.2c5.3-8.7,3.7-17.7-5-38.4
			H32.7H20C11.3,66.3,9.6,75.3,15,84c4.6,7.5,16,7.8,15.9,14.2l-0.2,15.4c0,2.2-1.7,4.1-3.9,4.4l-13,2c-0.4,0.1-0.7,0.4-0.6,0.8
			c0,0.4,0.4,0.7,0.7,0.7c12.5,0,25.1,0,37.6,0c0.4,0,0.7-0.3,0.7-0.7C52.3,120.4,52,120.1,51.6,120L51.6,120z"/>
		<path class="st4" d="M32.7,95.8c1-3,4.1-4.7,7-6.2c3.2-1.7,6.9-3.5,8.9-6.7c2.6-4.2,3.1-8.3,2.4-13.2c-1-7-4.3-15.1-7.1-21.8H21.5
			c-2.8,6.7-6.1,14.8-7.1,21.8c-0.7,4.9-0.2,9,2.4,13.2c2,3.2,5.6,5,8.9,6.7C28.6,91.1,31.6,92.8,32.7,95.8L32.7,95.8z"/>
		<path class="st8" d="M94.1,108.6c1.8-1.2,3.5-2.5,5.1-4.1c1.8-1.8,3.3-3.8,4.6-6.1c1.3-2.3,2.3-4.7,3-7.2c0.6-2.2,0.9-4.4,1-6.7
			c0-0.6,0.5-1.1,1.1-1.1l0.7,0c0.3,0,0.6,0.1,0.8,0.3c0.2,0.2,0.3,0.5,0.3,0.8c-0.1,2.5-0.4,4.9-1.1,7.3c-0.7,2.7-1.8,5.4-3.3,7.9
			c-1.4,2.5-3.2,4.7-5.1,6.7c-1.7,1.7-3.6,3.2-5.6,4.5c-0.3,0.2-0.6,0.2-0.9,0.1c-0.3-0.1-0.5-0.2-0.7-0.5l-0.4-0.6
			C93.5,109.6,93.6,108.9,94.1,108.6L94.1,108.6z M40.8,81.7c0.4-0.3,0.8-0.5,1.1-0.8c0.5-0.4,1-0.9,1.3-1.4
			c0.9-1.5,1.4-2.9,1.6-4.3c0.2-1.2,0.2-2.4,0.1-3.7c-0.1-0.6,0.4-1.1,1-1.2l0.7-0.1c0.3,0,0.6,0,0.8,0.2c0.2,0.2,0.4,0.5,0.4,0.8
			c0.2,1.6,0.1,3-0.1,4.5c-0.3,1.8-0.9,3.6-2,5.4c-0.5,0.8-1.2,1.5-1.9,2.1c-0.4,0.4-0.9,0.7-1.4,1c-0.3,0.2-0.6,0.2-0.9,0.2
			c-0.3-0.1-0.6-0.2-0.7-0.5l-0.4-0.6C40.1,82.7,40.3,82,40.8,81.7L40.8,81.7z"/>
	</g>
	<path class="st4" d="M60,27.7c0.8-6,5.9-10.6,12.1-10.6c-6.2,0-11.3-4.6-12.1-10.6c-0.8,6-5.9,10.6-12.1,10.6
		C54.1,17.1,59.3,21.7,60,27.7z"/>
	<path class="st4" d="M68.5,42.9c0.5-3.5,3.5-6.2,7.1-6.2c-3.6,0-6.6-2.7-7.1-6.2c-0.5,3.5-3.5,6.2-7.1,6.2
		C65,36.6,68,39.4,68.5,42.9z"/>
	<path class="st4" d="M38.6,41c0.5-3.5,3.5-6.2,7.1-6.2c-3.6,0-6.6-2.7-7.1-6.2c-0.5,3.5-3.5,6.2-7.1,6.2
		C35.1,34.8,38.1,37.5,38.6,41z"/>
	<path class="st13" d="M80.9,56.7c0.3-2.3,2.2-4,4.6-4c-2.3,0-4.3-1.7-4.6-4c-0.3,2.3-2.2,4-4.6,4C78.7,52.7,80.6,54.4,80.9,56.7z"
		/>
	<path class="st4" d="M88.2,32.1c0.3-2.3,2.2-4,4.6-4c-2.3,0-4.3-1.7-4.6-4c-0.3,2.3-2.2,4-4.6,4C85.9,28,87.9,29.8,88.2,32.1z"/>
	<path class="st4" d="M95.9,45.5c0.3-2.3,2.2-4,4.6-4c-2.3,0-4.3-1.7-4.6-4c-0.3,2.3-2.2,4-4.6,4C93.7,41.5,95.6,43.2,95.9,45.5z"/>
</g>
</svg>
