<?xml version="1.0" encoding="utf-8"?>
<!-- Generator: Adobe Illustrator 27.9.0, SVG Export Plug-In . SVG Version: 6.00 Build 0)  -->
<svg version="1.1" id="Layer_1" xmlns="http://www.w3.org/2000/svg" xmlns:xlink="http://www.w3.org/1999/xlink" x="0px" y="0px"
	 viewBox="0 0 128 128" style="enable-background:new 0 0 128 128;" xml:space="preserve">
<style type="text/css">
	.st0{fill-rule:evenodd;clip-rule:evenodd;fill:none;}
	.st1{fill-rule:evenodd;clip-rule:evenodd;fill:#F1892D;}
	.st2{fill:#C5D3E2;}
	.st3{fill:#39D5FF;}
	.st4{fill-rule:evenodd;clip-rule:evenodd;fill:#F9BF3B;}
	.st5{fill-rule:evenodd;clip-rule:evenodd;fill:#F5AB35;}
	.st6{fill-rule:evenodd;clip-rule:evenodd;fill:#39D5FF;}
	.st7{fill-rule:evenodd;clip-rule:evenodd;fill:#C5D3E2;}
	.st8{fill:#FFFFFF;}
	.st9{fill-rule:evenodd;clip-rule:evenodd;fill:#29C5FF;}
	.st10{fill-rule:evenodd;clip-rule:evenodd;fill:#0057A0;}
	.st11{fill:#F1892D;}
	.st12{fill-rule:evenodd;clip-rule:evenodd;fill:#ACBAC9;}
	.st13{fill-rule:evenodd;clip-rule:evenodd;fill:#FFFFFF;}
	.st14{fill-rule:evenodd;clip-rule:evenodd;fill:#D87400;}
	.st15{fill-rule:evenodd;clip-rule:evenodd;fill:#003780;}
	.st16{fill-rule:evenodd;clip-rule:evenodd;fill:#19B5FE;}
	.st17{fill-rule:evenodd;clip-rule:evenodd;fill:#1297E0;}
	.st18{fill:#0057A0;}
	.st19{fill:#F9BF3B;}
	.st20{fill-rule:evenodd;clip-rule:evenodd;fill:#DFECFA;}
	.st21{fill-rule:evenodd;clip-rule:evenodd;fill:#0077C0;}
	.st22{fill-rule:evenodd;clip-rule:evenodd;fill:#E6EEF7;}
	.st23{fill-rule:evenodd;clip-rule:evenodd;fill:#DBC2A4;}
	.st24{fill-rule:evenodd;clip-rule:evenodd;fill:#FFE3C1;}
	.st25{fill-rule:evenodd;clip-rule:evenodd;fill:#353535;}
	.st26{fill-rule:evenodd;clip-rule:evenodd;fill:#3C4A59;}
	.st27{fill-rule:evenodd;clip-rule:evenodd;fill:#6C7A89;}
	.st28{fill-rule:evenodd;clip-rule:evenodd;fill:#4C5A69;}
</style>
<rect class="st0" width="128" height="128"/>
<g>
	<path class="st4" d="M22.2,39.7h83.5l-2.1-24.4c-0.4-5-5.3-8.8-11.2-8.8H35.6c-5.9,0-10.8,3.8-11.2,8.8L22.2,39.7L22.2,39.7z"/>
	<path class="st5" d="M77.2,39.7h28.6l-2.1-24.4c-0.4-5-5.3-8.8-11.2-8.8H77.2C77.3,18.7,77.3,29.8,77.2,39.7L77.2,39.7z"/>
	<path class="st1" d="M38.6,37.6h50.9l-1.3-14.9c-0.3-3-3.2-5.4-6.8-5.4H46.7c-3.6,0-6.6,2.3-6.8,5.4L38.6,37.6L38.6,37.6z"/>
	<path class="st14" d="M77.2,37.6h12.2l-1.3-14.9c-0.3-3-3.2-5.4-6.8-5.4h-4C77.3,24.5,77.3,31.3,77.2,37.6L77.2,37.6z"/>
	<path class="st6" d="M22.2,45.1h83.5l-5.8,68.3c-0.4,4.6-4.9,8.1-10.4,8.1H38.4c-5.5,0-10-3.5-10.4-8.1L22.2,45.1L22.2,45.1z"/>
	<path class="st9" d="M77.1,45.1h28.7l-5.8,68.3c-0.4,4.6-4.9,8.1-10.4,8.1H49.3C69.8,119.3,75.9,98.2,77.1,45.1z"/>
	<path class="st10" d="M21.1,36.8h85.8c2.6,0,4.7,1.9,4.7,4.2v0c0,2.3-2.1,4.2-4.7,4.2H21.1c-2.6,0-4.7-1.9-4.7-4.2v0
		C16.4,38.7,18.5,36.8,21.1,36.8z"/>
	<path class="st15" d="M77.2,36.8h30.2c2.3,0,4.2,1.9,4.2,4.2v0c0,2.3-1.9,4.2-4.2,4.2H77.1C77.1,42.4,77.2,39.6,77.2,36.8
		L77.2,36.8z"/>
	<path class="st16" d="M64,55.9L64,55.9c0.8,0,1.4,0.6,1.4,1.4v52c0,0.8-0.6,1.4-1.4,1.4h0c-0.8,0-1.4-0.6-1.4-1.4v-52
		C62.6,56.5,63.2,55.9,64,55.9z"/>
	<path class="st16" d="M86.3,55.9L86.3,55.9c0.8,0,1.3,0.6,1.3,1.4l-4.1,52c-0.1,0.8-0.7,1.4-1.5,1.4l0,0c-0.8,0-1.3-0.6-1.3-1.4
		l4.1-52C84.9,56.5,85.5,55.9,86.3,55.9z"/>
	<path class="st17" d="M86.3,55.9L86.3,55.9c0.8,0,1.3,0.6,1.3,1.4l-4.1,52c-0.1,0.8-0.7,1.4-1.5,1.4h0c-0.8,0-1.3-0.6-1.3-1.4
		l4.1-52C84.9,56.5,85.5,55.9,86.3,55.9L86.3,55.9z"/>
	<path class="st16" d="M41.7,55.9L41.7,55.9c-0.8,0-1.3,0.6-1.3,1.4l4.1,52c0.1,0.8,0.7,1.4,1.5,1.4l0,0c0.8,0,1.3-0.6,1.3-1.4
		l-4.1-52C43.1,56.5,42.5,55.9,41.7,55.9z"/>
</g>
</svg>
