<?xml version="1.0" encoding="utf-8"?>
<!-- Generator: Adobe Illustrator 27.9.0, SVG Export Plug-In . SVG Version: 6.00 Build 0)  -->
<svg version="1.1" id="Layer_1" xmlns="http://www.w3.org/2000/svg" xmlns:xlink="http://www.w3.org/1999/xlink" x="0px" y="0px"
	 viewBox="0 0 128 128" style="enable-background:new 0 0 128 128;" xml:space="preserve">
<style type="text/css">
	.st0{fill-rule:evenodd;clip-rule:evenodd;fill:none;}
	.st1{fill-rule:evenodd;clip-rule:evenodd;fill:#F1892D;}
	.st2{fill:#C5D3E2;}
	.st3{fill:#39D5FF;}
	.st4{fill-rule:evenodd;clip-rule:evenodd;fill:#F9BF3B;}
	.st5{fill-rule:evenodd;clip-rule:evenodd;fill:#F5AB35;}
	.st6{fill-rule:evenodd;clip-rule:evenodd;fill:#39D5FF;}
	.st7{fill-rule:evenodd;clip-rule:evenodd;fill:#C5D3E2;}
	.st8{fill:#FFFFFF;}
	.st9{fill-rule:evenodd;clip-rule:evenodd;fill:#29C5FF;}
	.st10{fill-rule:evenodd;clip-rule:evenodd;fill:#0057A0;}
	.st11{fill:#F1892D;}
	.st12{fill-rule:evenodd;clip-rule:evenodd;fill:#ACBAC9;}
	.st13{fill-rule:evenodd;clip-rule:evenodd;fill:#FFFFFF;}
	.st14{fill-rule:evenodd;clip-rule:evenodd;fill:#D87400;}
	.st15{fill-rule:evenodd;clip-rule:evenodd;fill:#003780;}
	.st16{fill-rule:evenodd;clip-rule:evenodd;fill:#19B5FE;}
	.st17{fill-rule:evenodd;clip-rule:evenodd;fill:#1297E0;}
	.st18{fill:#0057A0;}
	.st19{fill:#F9BF3B;}
	.st20{fill-rule:evenodd;clip-rule:evenodd;fill:#DFECFA;}
	.st21{fill-rule:evenodd;clip-rule:evenodd;fill:#0077C0;}
	.st22{fill-rule:evenodd;clip-rule:evenodd;fill:#E6EEF7;}
	.st23{fill-rule:evenodd;clip-rule:evenodd;fill:#DBC2A4;}
	.st24{fill-rule:evenodd;clip-rule:evenodd;fill:#FFE3C1;}
	.st25{fill-rule:evenodd;clip-rule:evenodd;fill:#353535;}
	.st26{fill-rule:evenodd;clip-rule:evenodd;fill:#3C4A59;}
	.st27{fill-rule:evenodd;clip-rule:evenodd;fill:#6C7A89;}
	.st28{fill-rule:evenodd;clip-rule:evenodd;fill:#4C5A69;}
</style>
<rect class="st0" width="128" height="128"/>
<g id="_2957627463360">
	<rect x="6.7" y="28" class="st6" width="114.6" height="81.6"/>
	<path class="st10" d="M12.7,121.5h102.7c3.3,0,6-2.7,6-6v-6H6.7v6C6.7,118.8,9.4,121.5,12.7,121.5z"/>
	<circle class="st10" cx="64" cy="68.8" r="28.2"/>
	<path class="st12" d="M6.7,28h114.6l-4.5-6.2V9.5c0-1.7-1.4-3-3-3H14.2c-1.7,0-3,1.4-3,3v12.2L6.7,28L6.7,28z"/>
	<path class="st7" d="M116.8,21.7V9.5c0-1.7-1.4-3-3-3H14.2c-1.7,0-3,1.4-3,3v12.2H116.8L116.8,21.7z"/>
	<circle class="st13" cx="64" cy="68.8" r="24.4"/>
	<path class="st6" d="M86.8,67.5c0,0.4,0,0.8,0,1.3c0,12.6-10.2,22.8-22.8,22.8c-12.6,0-22.8-10.2-22.8-22.8c0-0.5,0-1,0-1.4
		C54.6,59.5,71,79.9,86.8,67.5L86.8,67.5z"/>
	<circle class="st10" cx="21.4" cy="15" r="3.4"/>
	<circle class="st10" cx="33.2" cy="15" r="3.4"/>
	<circle class="st10" cx="45" cy="15" r="3.4"/>
	<circle class="st10" cx="56.9" cy="15" r="3.4"/>
	<path class="st10" d="M82.3,10.5h22.8c2.5,0,4.5,2,4.5,4.5v0c0,2.5-2,4.5-4.5,4.5H82.3c-2.5,0-4.5-2-4.5-4.5v0
		C77.8,12.5,79.8,10.5,82.3,10.5z"/>
	<rect x="68.4" y="6.6" class="st12" width="1.3" height="15.2"/>
</g>
</svg>
