<?xml version="1.0" encoding="utf-8"?>
<!-- Generator: Adobe Illustrator 27.9.0, SVG Export Plug-In . SVG Version: 6.00 Build 0)  -->
<svg version="1.1" id="Layer_1" xmlns="http://www.w3.org/2000/svg" xmlns:xlink="http://www.w3.org/1999/xlink" x="0px" y="0px"
	 viewBox="0 0 128 128" style="enable-background:new 0 0 128 128;" xml:space="preserve">
<style type="text/css">
	.st0{fill-rule:evenodd;clip-rule:evenodd;fill:none;}
	.st1{fill-rule:evenodd;clip-rule:evenodd;fill:#F1892D;}
	.st2{fill:#C5D3E2;}
	.st3{fill:#39D5FF;}
	.st4{fill-rule:evenodd;clip-rule:evenodd;fill:#F9BF3B;}
	.st5{fill-rule:evenodd;clip-rule:evenodd;fill:#F5AB35;}
	.st6{fill-rule:evenodd;clip-rule:evenodd;fill:#39D5FF;}
	.st7{fill-rule:evenodd;clip-rule:evenodd;fill:#C5D3E2;}
	.st8{fill:#FFFFFF;}
	.st9{fill-rule:evenodd;clip-rule:evenodd;fill:#29C5FF;}
	.st10{fill-rule:evenodd;clip-rule:evenodd;fill:#0057A0;}
	.st11{fill:#F1892D;}
	.st12{fill-rule:evenodd;clip-rule:evenodd;fill:#ACBAC9;}
	.st13{fill-rule:evenodd;clip-rule:evenodd;fill:#FFFFFF;}
	.st14{fill-rule:evenodd;clip-rule:evenodd;fill:#D87400;}
	.st15{fill-rule:evenodd;clip-rule:evenodd;fill:#003780;}
	.st16{fill-rule:evenodd;clip-rule:evenodd;fill:#19B5FE;}
	.st17{fill-rule:evenodd;clip-rule:evenodd;fill:#1297E0;}
	.st18{fill:#0057A0;}
	.st19{fill:#F9BF3B;}
	.st20{fill-rule:evenodd;clip-rule:evenodd;fill:#DFECFA;}
	.st21{fill-rule:evenodd;clip-rule:evenodd;fill:#0077C0;}
	.st22{fill-rule:evenodd;clip-rule:evenodd;fill:#E6EEF7;}
	.st23{fill-rule:evenodd;clip-rule:evenodd;fill:#DBC2A4;}
	.st24{fill-rule:evenodd;clip-rule:evenodd;fill:#FFE3C1;}
	.st25{fill-rule:evenodd;clip-rule:evenodd;fill:#353535;}
	.st26{fill-rule:evenodd;clip-rule:evenodd;fill:#3C4A59;}
	.st27{fill-rule:evenodd;clip-rule:evenodd;fill:#6C7A89;}
	.st28{fill-rule:evenodd;clip-rule:evenodd;fill:#4C5A69;}
</style>
<rect class="st0" width="128" height="128"/>
<g id="_2957227664928">
	<path class="st6" d="M31.4,66.3h65.2v19.1c0,4.6-3.8,8.4-8.4,8.4H39.8c-4.6,0-8.4-3.8-8.4-8.4L31.4,66.3L31.4,66.3z"/>
	<path class="st10" d="M85.3,38.7H90c0.9,0,1.6,0.7,1.6,1.6v1.6c0,0.9-0.7,1.6-1.6,1.6h-4.7c-0.9,0-1.6-0.7-1.6-1.6v-1.6
		C83.7,39.4,84.4,38.7,85.3,38.7z"/>
	<path class="st15" d="M87.9,38.7H90c0.9,0,1.6,0.7,1.6,1.6v1.6c0,0.9-0.7,1.6-1.6,1.6h-2.1V38.7z"/>
	<path class="st4" d="M61.4,45.6h5.2c0.6,0,1.1,0.5,1.1,1.1v11.1c1.8,0.9,2.9,2.3,2.9,4H57.4c0-1.7,1.2-3.1,2.9-4V46.7
		C60.3,46.1,60.8,45.6,61.4,45.6L61.4,45.6z"/>
	<path class="st1" d="M64,45.6h2.6c0.6,0,1.1,0.5,1.1,1.1v11.1c1.8,0.9,2.9,2.3,2.9,4H64V45.6L64,45.6z"/>
	<path class="st18" d="M62.5,45.6v-8.3c0-3.6,1.5-6.9,3.8-9.3c2.4-2.4,5.6-3.8,9.3-3.8h0.5c3.6,0,6.9,1.5,9.3,3.8
		c2.4,2.4,3.8,5.6,3.8,9.3v1.3h-3v-1.3c0-2.8-1.1-5.3-3-7.1c-1.8-1.8-4.4-3-7.1-3h-0.5c-2.8,0-5.3,1.1-7.1,3c-1.8,1.8-3,4.4-3,7.1
		v8.3H62.5z"/>
	<path class="st10" d="M30.5,60.7h67c1.9,0,3.4,1.5,3.4,3.4v1.4c0,1.9-1.5,3.4-3.4,3.4h-67c-1.9,0-3.4-1.5-3.4-3.4v-1.4
		C27.1,62.2,28.6,60.7,30.5,60.7z"/>
	<g>
		<path class="st4" d="M76,51.6h0.8h2.1h4.3c0.4,0,0.8,0.3,0.8,0.8c0,0.4-0.3,0.8-0.8,0.8h-3.6v5.3c1,0.5,1.6,1.3,1.6,2.2h-7.4
			c0-0.9,0.6-1.8,1.6-2.2v-6.2C75.4,51.8,75.7,51.6,76,51.6z"/>
		<path class="st1" d="M79.6,53.1v5.3c1,0.5,1.6,1.3,1.6,2.2h-3.7v-7.6L79.6,53.1L79.6,53.1z"/>
		<path class="st4" d="M52,51.6h-0.8h-2.1h-4.3c-0.4,0-0.8,0.3-0.8,0.8c0,0.4,0.3,0.8,0.8,0.8h3.6v5.3c-1,0.5-1.6,1.3-1.6,2.2h7.4
			c0-0.9-0.6-1.8-1.6-2.2v-6.2C52.6,51.8,52.3,51.6,52,51.6L52,51.6z"/>
		<path class="st1" d="M48.4,53.1v5.3c-1,0.5-1.6,1.3-1.6,2.2h3.7v-7.6L48.4,53.1L48.4,53.1z"/>
	</g>
	<path class="st10" d="M70.7,93.8c0,3.7-3,6.7-6.7,6.7c-3.7,0-6.7-3-6.7-6.7C57.3,93.8,70.7,93.8,70.7,93.8z"/>
	<rect x="62.3" y="98.3" class="st10" width="3.4" height="23.2"/>
	<path class="st4" d="M36,46.1c0.4-3.3,3.2-5.8,6.6-5.8c-3.4,0-6.2-2.5-6.6-5.8c-0.4,3.3-3.2,5.8-6.6,5.8
		C32.8,40.3,35.6,42.8,36,46.1z"/>
	<path class="st4" d="M89.2,55.3c0.3-2,1.9-3.5,4-3.5c-2,0-3.7-1.5-4-3.5c-0.3,2-1.9,3.5-4,3.5C87.2,51.8,88.9,53.3,89.2,55.3z
		 M75.1,18.2c0.4-3.3,3.2-5.8,6.6-5.8c-3.4,0-6.2-2.5-6.6-5.8c-0.4,3.3-3.2,5.8-6.6,5.8C71.9,12.4,74.7,14.9,75.1,18.2z M57.2,13.5
		c0.3-2,1.9-3.5,4-3.5c-2,0-3.7-1.5-4-3.5c-0.3,2-1.9,3.5-4,3.5C55.3,10,57,11.5,57.2,13.5z M86.1,22.8c0.2-1.5,1.5-2.7,3.1-2.7
		c-1.6,0-2.9-1.2-3.1-2.7c-0.2,1.5-1.5,2.7-3.1,2.7C84.5,20.1,85.8,21.3,86.1,22.8z M73.7,38.3c0.3-2,1.9-3.5,4-3.5
		c-2,0-3.7-1.5-4-3.5c-0.3,2-1.9,3.5-4,3.5C71.7,34.9,73.4,36.4,73.7,38.3z M52.8,32.3c0.3-2.3,2.3-4.1,4.7-4.1
		c-2.4,0-4.4-1.8-4.7-4.1c-0.3,2.3-2.3,4.1-4.7,4.1C50.6,28.2,52.5,30,52.8,32.3z"/>
</g>
</svg>
