<?xml version="1.0" encoding="utf-8"?>
<!-- Generator: Adobe Illustrator 27.9.0, SVG Export Plug-In . SVG Version: 6.00 Build 0)  -->
<svg version="1.1" id="Layer_1" xmlns="http://www.w3.org/2000/svg" xmlns:xlink="http://www.w3.org/1999/xlink" x="0px" y="0px"
	 viewBox="0 0 128 128" style="enable-background:new 0 0 128 128;" xml:space="preserve">
<style type="text/css">
	.st0{fill-rule:evenodd;clip-rule:evenodd;fill:none;}
	.st1{fill-rule:evenodd;clip-rule:evenodd;fill:#F1892D;}
	.st2{fill:#C5D3E2;}
	.st3{fill:#39D5FF;}
	.st4{fill-rule:evenodd;clip-rule:evenodd;fill:#F9BF3B;}
	.st5{fill-rule:evenodd;clip-rule:evenodd;fill:#F5AB35;}
	.st6{fill-rule:evenodd;clip-rule:evenodd;fill:#39D5FF;}
	.st7{fill-rule:evenodd;clip-rule:evenodd;fill:#C5D3E2;}
	.st8{fill:#FFFFFF;}
	.st9{fill-rule:evenodd;clip-rule:evenodd;fill:#29C5FF;}
	.st10{fill-rule:evenodd;clip-rule:evenodd;fill:#0057A0;}
	.st11{fill:#F1892D;}
	.st12{fill-rule:evenodd;clip-rule:evenodd;fill:#ACBAC9;}
	.st13{fill-rule:evenodd;clip-rule:evenodd;fill:#FFFFFF;}
	.st14{fill-rule:evenodd;clip-rule:evenodd;fill:#D87400;}
	.st15{fill-rule:evenodd;clip-rule:evenodd;fill:#003780;}
	.st16{fill-rule:evenodd;clip-rule:evenodd;fill:#19B5FE;}
	.st17{fill-rule:evenodd;clip-rule:evenodd;fill:#1297E0;}
	.st18{fill:#0057A0;}
	.st19{fill:#F9BF3B;}
	.st20{fill-rule:evenodd;clip-rule:evenodd;fill:#DFECFA;}
	.st21{fill-rule:evenodd;clip-rule:evenodd;fill:#0077C0;}
	.st22{fill-rule:evenodd;clip-rule:evenodd;fill:#E6EEF7;}
	.st23{fill-rule:evenodd;clip-rule:evenodd;fill:#DBC2A4;}
	.st24{fill-rule:evenodd;clip-rule:evenodd;fill:#FFE3C1;}
	.st25{fill-rule:evenodd;clip-rule:evenodd;fill:#353535;}
	.st26{fill-rule:evenodd;clip-rule:evenodd;fill:#3C4A59;}
	.st27{fill-rule:evenodd;clip-rule:evenodd;fill:#6C7A89;}
	.st28{fill-rule:evenodd;clip-rule:evenodd;fill:#4C5A69;}
</style>
<rect class="st0" width="128" height="128"/>
<g id="_2957553840352">
	<g>
		<path class="st1" d="M56.5,25.2h4.8h1.1c1.2,0,2.2,0.4,2.9,1.3c0.8,0.9,1.1,1.9,1,3l-3.6,37h-1.4h-4.8h-1.4l-3.6-37
			c-0.1-1.2,0.2-2.2,1-3c0.8-0.9,1.8-1.3,2.9-1.3L56.5,25.2L56.5,25.2z"/>
		<path class="st14" d="M56.1,64.9h5.5c1.9,0,3.5,1.6,3.5,3.5v5.5H52.7v-5.5C52.7,66.4,54.2,64.9,56.1,64.9z"/>
		<path class="st4" d="M36.1,76h45.6l3.9,14.6c0.2,0.8,0.1,1.7-0.5,2.4c-0.5,0.7-1.3,1.1-2.2,1.1H62.2H43.4L42,86.4L38.1,94h-3.3
			c-0.9,0-1.6-0.4-2.2-1.1c-0.5-0.7-0.7-1.5-0.5-2.4L36.1,76L36.1,76z"/>
		<path class="st1" d="M40.5,69.1h36.8c2.4,0,4.4,2,4.4,4.4V76H36.1v-2.5C36.1,71.1,38.1,69.1,40.5,69.1L40.5,69.1z"/>
	</g>
	<path class="st3" d="M58.9,16.4c-13.2,0-25.1,5.3-33.7,14c-8.6,8.6-14,20.5-14,33.7c0,13.2,5.3,25.1,14,33.7
		c8.6,8.6,20.5,14,33.7,14c13.2,0,25.1-5.3,33.7-14c8.6-8.6,14-20.5,14-33.7c0-0.9,0-1.7-0.1-2.4l4.7-0.2c0,1,0.1,1.9,0.1,2.6
		c0,14.5-5.9,27.6-15.3,37c-9.5,9.5-22.6,15.3-37,15.3c-14.5,0-27.6-5.9-37-15.3S6.5,78.5,6.5,64c0-14.5,5.9-27.6,15.3-37
		c9.5-9.5,22.6-15.3,37-15.3L58.9,16.4L58.9,16.4z"/>
	<path class="st6" d="M97,71.5h23.3c0.5,0,0.9-0.2,1.1-0.7c0.2-0.4,0.2-0.9-0.1-1.2l-5.6-7.6l-6-8.2c-0.2-0.3-0.6-0.5-1-0.5
		c-0.4,0-0.7,0.2-1,0.5l-6,8.2L96,69.6c-0.3,0.4-0.3,0.8-0.1,1.2C96.1,71.2,96.5,71.5,97,71.5L97,71.5z"/>
	<path class="st6" d="M75.3,29.7c6.1,0,11.2,4.6,12,10.5c0.8-5.9,5.8-10.5,12-10.5c-6.1,0-11.2-4.6-12-10.5
		C86.5,25.1,81.4,29.7,75.3,29.7z"/>
</g>
</svg>
