<?xml version="1.0" encoding="utf-8"?>
<!-- Generator: Adobe Illustrator 27.9.0, SVG Export Plug-In . SVG Version: 6.00 Build 0)  -->
<svg version="1.1" id="Layer_1" xmlns="http://www.w3.org/2000/svg" xmlns:xlink="http://www.w3.org/1999/xlink" x="0px" y="0px"
	 viewBox="0 0 128 128" style="enable-background:new 0 0 128 128;" xml:space="preserve">
<style type="text/css">
	.st0{fill-rule:evenodd;clip-rule:evenodd;fill:none;}
	.st1{fill-rule:evenodd;clip-rule:evenodd;fill:#F1892D;}
	.st2{fill:#C5D3E2;}
	.st3{fill:#39D5FF;}
	.st4{fill-rule:evenodd;clip-rule:evenodd;fill:#F9BF3B;}
	.st5{fill-rule:evenodd;clip-rule:evenodd;fill:#F5AB35;}
	.st6{fill-rule:evenodd;clip-rule:evenodd;fill:#39D5FF;}
	.st7{fill-rule:evenodd;clip-rule:evenodd;fill:#C5D3E2;}
	.st8{fill:#FFFFFF;}
	.st9{fill-rule:evenodd;clip-rule:evenodd;fill:#29C5FF;}
	.st10{fill-rule:evenodd;clip-rule:evenodd;fill:#0057A0;}
	.st11{fill:#F1892D;}
	.st12{fill-rule:evenodd;clip-rule:evenodd;fill:#ACBAC9;}
	.st13{fill-rule:evenodd;clip-rule:evenodd;fill:#FFFFFF;}
	.st14{fill-rule:evenodd;clip-rule:evenodd;fill:#D87400;}
	.st15{fill-rule:evenodd;clip-rule:evenodd;fill:#003780;}
	.st16{fill-rule:evenodd;clip-rule:evenodd;fill:#19B5FE;}
	.st17{fill-rule:evenodd;clip-rule:evenodd;fill:#1297E0;}
	.st18{fill:#0057A0;}
	.st19{fill:#F9BF3B;}
	.st20{fill-rule:evenodd;clip-rule:evenodd;fill:#DFECFA;}
	.st21{fill-rule:evenodd;clip-rule:evenodd;fill:#0077C0;}
	.st22{fill-rule:evenodd;clip-rule:evenodd;fill:#E6EEF7;}
	.st23{fill-rule:evenodd;clip-rule:evenodd;fill:#DBC2A4;}
	.st24{fill-rule:evenodd;clip-rule:evenodd;fill:#FFE3C1;}
	.st25{fill-rule:evenodd;clip-rule:evenodd;fill:#353535;}
	.st26{fill-rule:evenodd;clip-rule:evenodd;fill:#3C4A59;}
	.st27{fill-rule:evenodd;clip-rule:evenodd;fill:#6C7A89;}
	.st28{fill-rule:evenodd;clip-rule:evenodd;fill:#4C5A69;}
</style>
<g id="_2957553823840">
	<rect class="st0" width="128" height="128"/>
	<path class="st6" d="M102,77.2v34.4c0,5.5-4.5,9.9-9.9,9.9H36c-5.5,0-9.9-4.5-9.9-9.9V77.2h-5.2c-3.4,0-6.4-2.2-7.4-5.5
		c-1-3.2,0.2-6.8,3-8.7l41.1-28.9c4-2.8,9.1-2.8,13.1,0l2.2,1.5c-2.1,3-3.4,6.8-3.4,10.8c0,10.3,8.4,18.7,18.7,18.7
		c6.3,0,11.9-3.1,15.3-8l8.3,5.8c2.8,2,4,5.5,3,8.7c-1,3.3-4,5.5-7.4,5.5L102,77.2L102,77.2z"/>
	<circle class="st4" cx="88" cy="46.4" r="16.1"/>
	<path class="st8" d="M80.3,44.9l4.5,4.5l10.9-10.7c0.6-0.6,1.7-0.6,2.3,0l0.2,0.2c0.6,0.6,0.6,1.7,0,2.3L84.9,54.5l-7-7.1
		c-0.6-0.6-0.6-1.7,0-2.3l0.2-0.2C78.7,44.3,79.7,44.3,80.3,44.9L80.3,44.9z"/>
	<path class="st10" d="M51.6,105.7V95.2h10.5v10.5H51.6z M65.9,105.7V95.2h10.5v10.5H65.9z M51.6,91.3V80.8h10.5v10.5H51.6z
		 M65.9,91.3V80.8h10.5v10.5H65.9z"/>
	<path class="st6" d="M26.4,38.8c3.5,0.4,6.1,3.4,6.1,7c0-3.6,2.7-6.6,6.1-7c-3.5-0.5-6.1-3.4-6.1-7C32.5,35.4,29.9,38.3,26.4,38.8z
		 M48.7,27c2.5,0.3,4.4,2.5,4.4,5.1c0-2.6,1.9-4.7,4.4-5.1c-2.5-0.3-4.4-2.5-4.4-5.1C53.1,24.6,51.2,26.7,48.7,27z M57.5,14.8
		c4.1,0.5,7.3,4.1,7.3,8.3c0-4.3,3.2-7.8,7.3-8.3c-4.1-0.5-7.3-4.1-7.3-8.3C64.8,10.8,61.6,14.3,57.5,14.8z M31.3,15.6
		c2.5,0.3,4.4,2.5,4.4,5.1c0-2.6,1.9-4.7,4.4-5.1c-2.5-0.3-4.4-2.5-4.4-5.1C35.8,13.1,33.8,15.2,31.3,15.6z"/>
</g>
</svg>
