<?xml version="1.0" encoding="utf-8"?>
<!-- Generator: Adobe Illustrator 27.9.0, SVG Export Plug-In . SVG Version: 6.00 Build 0)  -->
<svg version="1.1" id="Layer_1" xmlns="http://www.w3.org/2000/svg" xmlns:xlink="http://www.w3.org/1999/xlink" x="0px" y="0px"
	 viewBox="0 0 128 128" style="enable-background:new 0 0 128 128;" xml:space="preserve">
<style type="text/css">
	.st0{fill-rule:evenodd;clip-rule:evenodd;fill:none;}
	.st1{fill-rule:evenodd;clip-rule:evenodd;fill:#F1892D;}
	.st2{fill:#C5D3E2;}
	.st3{fill:#39D5FF;}
	.st4{fill-rule:evenodd;clip-rule:evenodd;fill:#F9BF3B;}
	.st5{fill-rule:evenodd;clip-rule:evenodd;fill:#F5AB35;}
	.st6{fill-rule:evenodd;clip-rule:evenodd;fill:#39D5FF;}
	.st7{fill-rule:evenodd;clip-rule:evenodd;fill:#C5D3E2;}
	.st8{fill:#FFFFFF;}
	.st9{fill-rule:evenodd;clip-rule:evenodd;fill:#29C5FF;}
	.st10{fill-rule:evenodd;clip-rule:evenodd;fill:#0057A0;}
	.st11{fill:#F1892D;}
	.st12{fill-rule:evenodd;clip-rule:evenodd;fill:#ACBAC9;}
	.st13{fill-rule:evenodd;clip-rule:evenodd;fill:#FFFFFF;}
	.st14{fill-rule:evenodd;clip-rule:evenodd;fill:#D87400;}
	.st15{fill-rule:evenodd;clip-rule:evenodd;fill:#003780;}
	.st16{fill-rule:evenodd;clip-rule:evenodd;fill:#19B5FE;}
	.st17{fill-rule:evenodd;clip-rule:evenodd;fill:#1297E0;}
	.st18{fill:#0057A0;}
	.st19{fill:#F9BF3B;}
	.st20{fill-rule:evenodd;clip-rule:evenodd;fill:#DFECFA;}
	.st21{fill-rule:evenodd;clip-rule:evenodd;fill:#0077C0;}
	.st22{fill-rule:evenodd;clip-rule:evenodd;fill:#E6EEF7;}
	.st23{fill-rule:evenodd;clip-rule:evenodd;fill:#DBC2A4;}
	.st24{fill-rule:evenodd;clip-rule:evenodd;fill:#FFE3C1;}
	.st25{fill-rule:evenodd;clip-rule:evenodd;fill:#353535;}
	.st26{fill-rule:evenodd;clip-rule:evenodd;fill:#3C4A59;}
	.st27{fill-rule:evenodd;clip-rule:evenodd;fill:#6C7A89;}
	.st28{fill-rule:evenodd;clip-rule:evenodd;fill:#4C5A69;}
</style>
<rect class="st0" width="128" height="128"/>
<g>
	<path class="st4" d="M21.8,38.6l17.9-9c2.2-1.1,4.8-0.3,6,1.8c6.7,11.5,21,16.2,33.2,10.9c2.2-1,4.8,0,5.9,2.1l9,17.9
		c1.1,2.2,0.3,4.8-1.8,6c-11.5,6.7-16.2,21-10.9,33.2c1,2.2,0,4.8-2.1,5.9l-17.9,9c-2.2,1.1-4.8,0.3-6-1.8
		c-6.7-11.5-21-16.2-33.2-10.9c-2.2,1-4.8,0-5.9-2.1L7,83.8c-1.1-2.2-0.3-4.8,1.8-6c11.5-6.7,16.2-21,10.9-33.2
		C18.7,42.3,19.7,39.7,21.8,38.6L21.8,38.6z"/>
	<path class="st5" d="M83.5,42.8c0.6,0.4,1,1,1.4,1.6l9,17.9c1.1,2.2,0.3,4.8-1.8,6c-11.5,6.7-16.2,21-10.9,33.2
		c1,2.2,0,4.8-2.1,5.9l-17.9,9c-2.2,1.1-4.8,0.3-6-1.8c-6.7-11.5-21-16.2-33.2-10.9c-2.2,1-4.8,0-5.9-2.1l-4.5-8.9
		c45.7,11,67.7-5.6,66-49.8C79.5,42.8,81.5,42.8,83.5,42.8L83.5,42.8z"/>
	<path class="st13" d="M57.6,83.8l3.9-10.2c0.2-0.6,0.2-1.2-0.1-1.8c-0.2-0.5-0.7-1-1.3-1.2c-0.6-0.2-1.2-0.2-1.8,0
		c-0.5,0.2-1,0.7-1.2,1.3l-3.6,9.4l0,0.1c-0.2,0.4-0.7,0.7-1.1,0.5l-0.1,0c-0.4-0.2-0.7-0.7-0.5-1.1L56.7,68
		c0.2-0.6,0.2-1.2-0.1-1.8c-0.2-0.5-0.7-1-1.3-1.2c-0.6-0.2-1.2-0.2-1.8,0c-0.5,0.2-1,0.7-1.2,1.3l-4.5,11.9
		c-0.2,0.4-0.7,0.7-1.1,0.5l-0.1,0c-0.4-0.2-0.7-0.7-0.5-1.1l8-20.9c0.2-0.6,0.2-1.2,0-1.8c-0.2-0.5-0.7-1-1.3-1.2
		c-0.6-0.2-1.2-0.2-1.8,0.1c-0.5,0.2-1,0.7-1.2,1.3l-8.4,22c-0.1,0.4-0.5,0.6-0.9,0.6l-0.4,0c-0.4,0-0.7-0.3-0.8-0.7l-1.4-9.3
		c-0.1-0.6-0.4-1.1-0.9-1.4c-0.5-0.4-1.2-0.5-1.9-0.5l-0.1,0c-0.6,0.1-1,0.4-1.3,0.9c-0.3,0.5-0.5,1.1-0.4,1.7l0,0.1l0.9,5.5l0,0.4
		c-0.6,2.4-1,5.5-0.9,8.5c0.1,2.5,0.6,4.9,1.5,7c0.4,0.8,0.6,1.6,0.6,2.4c0,0.8-0.1,1.6-0.4,2.5l-2.8,7.3c7.6-0.1,14.9,3.1,20,8.9
		l3.4-8.8c0.2-0.5,0.5-1,0.8-1.4c0.3-0.4,0.7-0.8,1.1-1.2l1-0.8c0.3-0.3,0.6-0.5,0.8-0.8c0.2-0.3,0.4-0.6,0.5-1l6.5-17.1
		c0.2-0.6,0.2-1.2-0.1-1.8c-0.2-0.5-0.7-1-1.3-1.2c-0.6-0.2-1.2-0.2-1.8,0c-0.5,0.2-1,0.7-1.2,1.3l0,0l-2.6,6.8l0,0
		c-0.2,0.4-0.7,0.7-1.1,0.5l-0.1,0c-0.2-0.1-0.4-0.2-0.5-0.5S57.5,84.1,57.6,83.8L57.6,83.8z"/>
	<path class="st4" d="M27.7,25.6c0.4-3.4,3.3-6,6.8-6c-3.5,0-6.4-2.6-6.8-6c-0.4,3.4-3.3,6-6.8,6C24.4,19.6,27.3,22.2,27.7,25.6z
		 M68.1,21c0.4-3.4,3.3-6,6.8-6c-3.5,0-6.4-2.6-6.8-6c-0.4,3.4-3.3,6-6.8,6C64.8,15,67.7,17.6,68.1,21z M52.4,25.9
		c0.3-2.4,2.4-4.3,4.9-4.3c-2.5,0-4.6-1.9-4.9-4.3c-0.3,2.4-2.4,4.3-4.9,4.3C50,21.6,52.1,23.5,52.4,25.9z M70.3,41.1
		c0.3-2.4,2.4-4.3,4.9-4.3c-2.5,0-4.6-1.9-4.9-4.3c-0.3,2.4-2.4,4.3-4.9,4.3C67.9,36.8,70,38.6,70.3,41.1z M18.8,37.8
		c0.2-1.2,1.2-2.1,2.4-2.1c-1.3,0-2.3-0.9-2.4-2.1c-0.2,1.2-1.2,2.1-2.4,2.1C17.6,35.7,18.7,36.6,18.8,37.8z M13.8,58.6
		c0.2-1.8,1.7-3.1,3.6-3.1c-1.8,0-3.3-1.4-3.6-3.1c-0.2,1.8-1.7,3.1-3.6,3.1C12,55.5,13.6,56.8,13.8,58.6z"/>
	<path class="st19" d="M88.9,48.3l25.4,10.4l-0.9,2.1l-23-9.4L88.9,48.3L88.9,48.3z M73,112.6l10.4,4.3l-0.9,2.1l-12.3-5L73,112.6
		L73,112.6z M81,93.8l13.3,5.4l-0.9,2.1l-12-4.9C81.2,95.6,81.1,94.7,81,93.8z M83.3,104.1l23.2,9.5l-0.9,2.1l-23-9.4
		C83,105.6,83.2,104.9,83.3,104.1z M85.3,77L99.8,83l-0.9,2.1L84.1,79C84.4,78.3,84.9,77.7,85.3,77z M91.1,71.2l30.4,12.4l-0.9,2.1
		L89,72.8C89.7,72.2,90.3,71.7,91.1,71.2L91.1,71.2z M93.9,58.2l13.5,5.5l-0.9,2.1l-11.1-4.5L93.9,58.2L93.9,58.2z"/>
</g>
</svg>
