<?xml version="1.0" encoding="utf-8"?>
<!-- Generator: Adobe Illustrator 27.9.0, SVG Export Plug-In . SVG Version: 6.00 Build 0)  -->
<svg version="1.1" id="Layer_1" xmlns="http://www.w3.org/2000/svg" xmlns:xlink="http://www.w3.org/1999/xlink" x="0px" y="0px"
	 viewBox="0 0 128 128" style="enable-background:new 0 0 128 128;" xml:space="preserve">
<style type="text/css">
	.st0{fill-rule:evenodd;clip-rule:evenodd;fill:none;}
	.st1{fill-rule:evenodd;clip-rule:evenodd;fill:#F1892D;}
	.st2{fill:#C5D3E2;}
	.st3{fill:#39D5FF;}
	.st4{fill-rule:evenodd;clip-rule:evenodd;fill:#F9BF3B;}
	.st5{fill-rule:evenodd;clip-rule:evenodd;fill:#F5AB35;}
	.st6{fill-rule:evenodd;clip-rule:evenodd;fill:#39D5FF;}
	.st7{fill-rule:evenodd;clip-rule:evenodd;fill:#C5D3E2;}
	.st8{fill:#FFFFFF;}
	.st9{fill-rule:evenodd;clip-rule:evenodd;fill:#29C5FF;}
	.st10{fill-rule:evenodd;clip-rule:evenodd;fill:#0057A0;}
	.st11{fill:#F1892D;}
	.st12{fill-rule:evenodd;clip-rule:evenodd;fill:#ACBAC9;}
	.st13{fill-rule:evenodd;clip-rule:evenodd;fill:#FFFFFF;}
	.st14{fill-rule:evenodd;clip-rule:evenodd;fill:#D87400;}
	.st15{fill-rule:evenodd;clip-rule:evenodd;fill:#003780;}
	.st16{fill-rule:evenodd;clip-rule:evenodd;fill:#19B5FE;}
	.st17{fill-rule:evenodd;clip-rule:evenodd;fill:#1297E0;}
	.st18{fill:#0057A0;}
	.st19{fill:#F9BF3B;}
	.st20{fill-rule:evenodd;clip-rule:evenodd;fill:#DFECFA;}
	.st21{fill-rule:evenodd;clip-rule:evenodd;fill:#0077C0;}
	.st22{fill-rule:evenodd;clip-rule:evenodd;fill:#E6EEF7;}
	.st23{fill-rule:evenodd;clip-rule:evenodd;fill:#DBC2A4;}
	.st24{fill-rule:evenodd;clip-rule:evenodd;fill:#FFE3C1;}
	.st25{fill-rule:evenodd;clip-rule:evenodd;fill:#353535;}
	.st26{fill-rule:evenodd;clip-rule:evenodd;fill:#3C4A59;}
	.st27{fill-rule:evenodd;clip-rule:evenodd;fill:#6C7A89;}
	.st28{fill-rule:evenodd;clip-rule:evenodd;fill:#4C5A69;}
</style>
<rect class="st0" width="128" height="128"/>
<g id="_2957553824368">
	<path class="st15" d="M81.2,39.1h3.1c1.7,0,3.1,1.4,3.1,3.1V54h-6.2C81.2,54,81.2,39.1,81.2,39.1z"/>
	<path class="st15" d="M43.5,39.1h3.1c1.7,0,3.1,1.4,3.1,3.1V54h-6.2C43.5,54,43.5,39.1,43.5,39.1z"/>
	<g>
		<path class="st6" d="M86.4,118.3V69v-4.8l2.7,6.7l8.1,5.8c0.8,0.5,1.6,0.7,2.6,0.5c0.9-0.2,1.6-0.7,2.1-1.6
			c1.1-2.1,2.9-5.2,5.1-9.4c0.8-1.4,0.4-3.2-0.9-4.1L85,47.1c-1.1-0.8-2.6-0.8-3.7,0c-1.3,1-2.8,1.8-4.3,2.5c0.1,0.5,0.1,1,0.1,1.5
			c0,17.2-26.1,17.2-26.1,0c0-0.5,0-1,0.1-1.5c-1.5-0.7-3-1.5-4.3-2.5c-1.1-0.8-2.6-0.8-3.7,0L22,62.1c-1.3,0.9-1.7,2.7-0.9,4.1
			c2.3,4.2,4,7.3,5.1,9.4c0.5,0.8,1.2,1.4,2.1,1.6c0.9,0.2,1.8,0,2.6-0.5l8.1-5.8l2.7-6.7V69v49.3c0,1.7,1.4,3.2,3.2,3.2h38.4
			C84.9,121.5,86.4,120.1,86.4,118.3z"/>
		<polygon class="st9" points="41.6,69 41.6,60.6 39,70.9 		"/>
		<polygon class="st9" points="86.4,60.6 86.4,69 89,70.9 		"/>
		<path class="st9" d="M50.9,51.1c0,17.2,26.1,17.2,26.1,0c0-0.5,0-1-0.1-1.5c-1.8,0.8-3.7,1.4-5.7,1.9c-4.7,1.1-9.7,1.1-14.5,0
			c-2-0.4-3.9-1.1-5.7-1.9C51,50.1,50.9,50.6,50.9,51.1L50.9,51.1z"/>
		<path class="st9" d="M54,75.1H74c1.2,0,2.1,1,2.1,2.1v21c0,1.2-1,2.1-2.1,2.1H54c-1.2,0-2.1-1-2.1-2.1v-21
			C51.9,76.1,52.9,75.1,54,75.1z"/>
	</g>
	<g>
		<path class="st2" d="M58.4,12.1c0-1.6,0.6-3,1.7-4c1-1,2.4-1.7,4-1.7c1.6,0,3,0.6,4,1.7c1,1,1.7,2.4,1.7,4c0,1.6-0.6,3-1.7,4
			c-0.9,0.9-2,1.5-3.3,1.6v3.3h-1.4v-4.6H64c1.2,0,2.3-0.5,3-1.3c0.8-0.8,1.3-1.8,1.3-3c0-1.2-0.5-2.3-1.3-3c-0.8-0.8-1.8-1.3-3-1.3
			c-1.2,0-2.3,0.5-3,1.3c-0.8,0.8-1.3,1.8-1.3,3L58.4,12.1L58.4,12.1z"/>
		<path class="st19" d="M52.7,30c0.2-2.7,1.4-5.2,3.3-7h0c2-2,4.9-3.3,8-3.3c3.1,0,6,1.3,8,3.3c1.8,1.8,3,4.3,3.3,7l13.5,4.2
			c0.9,0.3,1.7,0.9,2.2,1.6c0.5,0.7,0.8,1.6,0.8,2.6v1.1c0,1.2-0.5,2.3-1.3,3.1c-0.8,0.8-1.9,1.3-3.1,1.3h-47
			c-1.2,0-2.3-0.5-3.1-1.3c-0.8-0.8-1.3-1.9-1.3-3.1v-1.1c0-1,0.3-1.9,0.8-2.6c0.5-0.7,1.3-1.3,2.2-1.6L52.7,30L52.7,30z M57.9,24.9
			c-1.6,1.6-2.5,3.7-2.5,6.1v1L40,36.8c-0.4,0.1-0.7,0.3-0.9,0.6c-0.2,0.3-0.3,0.6-0.3,1v1.1c0,0.5,0.2,0.9,0.5,1.2
			c0.3,0.3,0.7,0.5,1.2,0.5h47c0.5,0,0.9-0.2,1.2-0.5c0.3-0.3,0.5-0.7,0.5-1.2v-1.1c0-0.4-0.1-0.7-0.3-1c-0.2-0.3-0.5-0.5-0.9-0.6
			L72.6,32v-1c0-2.4-1-4.5-2.5-6.1c-1.6-1.6-3.7-2.5-6.1-2.5C61.6,22.4,59.5,23.4,57.9,24.9L57.9,24.9z"/>
	</g>
	<path class="st10" d="M43.1,39.1h3h0.5c0.6,0,1.1,0.2,1.6,0.5V53c0,0.6-0.5,1.1-1.1,1.1h-4.1C42.5,54,42,53.6,42,53V40.2
		C42,39.6,42.5,39.1,43.1,39.1z"/>
	<path class="st10" d="M80.8,39.1h3h0.5c0.6,0,1.1,0.2,1.6,0.5V53c0,0.6-0.5,1.1-1.1,1.1h-4.1c-0.6,0-1.1-0.5-1.1-1.1V40.2
		C79.8,39.6,80.2,39.1,80.8,39.1L80.8,39.1z"/>
</g>
</svg>
