<?xml version="1.0" encoding="utf-8"?>
<!-- Generator: Adobe Illustrator 27.9.0, SVG Export Plug-In . SVG Version: 6.00 Build 0)  -->
<svg version="1.1" id="Layer_1" xmlns="http://www.w3.org/2000/svg" xmlns:xlink="http://www.w3.org/1999/xlink" x="0px" y="0px"
	 viewBox="0 0 128 128" style="enable-background:new 0 0 128 128;" xml:space="preserve">
<style type="text/css">
	.st0{fill-rule:evenodd;clip-rule:evenodd;fill:none;}
	.st1{fill-rule:evenodd;clip-rule:evenodd;fill:#F1892D;}
	.st2{fill:#C5D3E2;}
	.st3{fill:#39D5FF;}
	.st4{fill-rule:evenodd;clip-rule:evenodd;fill:#F9BF3B;}
	.st5{fill-rule:evenodd;clip-rule:evenodd;fill:#F5AB35;}
	.st6{fill-rule:evenodd;clip-rule:evenodd;fill:#39D5FF;}
	.st7{fill-rule:evenodd;clip-rule:evenodd;fill:#C5D3E2;}
	.st8{fill:#FFFFFF;}
	.st9{fill-rule:evenodd;clip-rule:evenodd;fill:#29C5FF;}
	.st10{fill-rule:evenodd;clip-rule:evenodd;fill:#0057A0;}
	.st11{fill:#F1892D;}
	.st12{fill-rule:evenodd;clip-rule:evenodd;fill:#ACBAC9;}
	.st13{fill-rule:evenodd;clip-rule:evenodd;fill:#FFFFFF;}
	.st14{fill-rule:evenodd;clip-rule:evenodd;fill:#D87400;}
	.st15{fill-rule:evenodd;clip-rule:evenodd;fill:#003780;}
	.st16{fill-rule:evenodd;clip-rule:evenodd;fill:#19B5FE;}
	.st17{fill-rule:evenodd;clip-rule:evenodd;fill:#1297E0;}
	.st18{fill:#0057A0;}
	.st19{fill:#F9BF3B;}
	.st20{fill-rule:evenodd;clip-rule:evenodd;fill:#DFECFA;}
	.st21{fill-rule:evenodd;clip-rule:evenodd;fill:#0077C0;}
	.st22{fill-rule:evenodd;clip-rule:evenodd;fill:#E6EEF7;}
	.st23{fill-rule:evenodd;clip-rule:evenodd;fill:#DBC2A4;}
	.st24{fill-rule:evenodd;clip-rule:evenodd;fill:#FFE3C1;}
	.st25{fill-rule:evenodd;clip-rule:evenodd;fill:#353535;}
	.st26{fill-rule:evenodd;clip-rule:evenodd;fill:#3C4A59;}
	.st27{fill-rule:evenodd;clip-rule:evenodd;fill:#6C7A89;}
	.st28{fill-rule:evenodd;clip-rule:evenodd;fill:#4C5A69;}
</style>
<rect class="st0" width="128" height="128"/>
<g>
	<path class="st10" d="M40.5,11.9H45v9h-4.5c-2.5,0-4.5-2-4.5-4.5v0C36,13.9,38,11.9,40.5,11.9z"/>
	<path class="st9" d="M85.9,79.7v36.1c0,3.2-2.6,5.8-5.8,5.8H41c-3.2,0-5.8-2.6-5.8-5.8V78.4c0-1.8,0.2-3.4,0.8-5.1l13.5-41.4
		c0.6-5.3,9.2-6.1,25.9-2.6V51c0,2.7,0.5,4.9,1.7,7.3l7,14C85.4,74.7,85.9,77,85.9,79.7L85.9,79.7z"/>
	<path class="st10" d="M85.9,79.7V112H66.6c-3.9,0-7-3.1-7-7V70.9c0-3.1,1.9-5.7,4.9-6.7L78,59.9l6.2,12.4
		C85.4,74.7,85.9,77,85.9,79.7L85.9,79.7z"/>
	<path class="st7" d="M85.9,79.7v29H66.6c-2,0-3.6-1.6-3.6-3.6V70.9c0-1.6,1-3,2.5-3.5l14-4.5l4.7,9.4C85.4,74.7,85.9,77,85.9,79.7
		L85.9,79.7z"/>
	<path class="st10" d="M35.3,110.1v-1.3h5.9c0.4,0,0.7,0.3,0.7,0.7v0c0,0.4-0.3,0.7-0.7,0.7C41.2,110.1,35.3,110.1,35.3,110.1z
		 M35.3,104.9v-1.3h5.9c0.4,0,0.7,0.3,0.7,0.7v0c0,0.4-0.3,0.7-0.7,0.7C41.2,104.9,35.3,104.9,35.3,104.9z M35.3,99.7v-1.3h5.9
		c0.4,0,0.7,0.3,0.7,0.7v0c0,0.4-0.3,0.7-0.7,0.7C41.2,99.7,35.3,99.7,35.3,99.7z M35.3,94.4v-1.3h5.9c0.4,0,0.7,0.3,0.7,0.7l0,0
		c0,0.4-0.3,0.7-0.7,0.7C41.2,94.4,35.3,94.4,35.3,94.4z M35.3,89.2v-1.3h5.9c0.4,0,0.7,0.3,0.7,0.7l0,0c0,0.4-0.3,0.7-0.7,0.7
		C41.2,89.2,35.3,89.2,35.3,89.2z M35.3,84v-1.3h5.9c0.4,0,0.7,0.3,0.7,0.7l0,0c0,0.4-0.3,0.7-0.7,0.7C41.2,84,35.3,84,35.3,84z
		 M35.3,78.8v-0.4c0-0.3,0-0.6,0-0.9h5.9c0.4,0,0.7,0.3,0.7,0.7v0c0,0.4-0.3,0.7-0.7,0.7C41.2,78.8,35.3,78.8,35.3,78.8z M35.9,73.8
		c0-0.2,0.1-0.3,0.2-0.5l0.3-0.8h6.5c0.4,0,0.7,0.3,0.7,0.7l0,0c0,0.4-0.3,0.7-0.7,0.7C42.9,73.8,35.9,73.8,35.9,73.8z M37.5,68.9
		l0.4-1.3h6.6c0.4,0,0.7,0.3,0.7,0.7v0c0,0.4-0.3,0.7-0.7,0.7H37.5L37.5,68.9z M39.2,63.9l0.4-1.3h6.7c0.4,0,0.7,0.3,0.7,0.7v0
		c0,0.4-0.3,0.7-0.7,0.7H39.2L39.2,63.9z M40.8,58.9l0.4-1.3h6.8c0.4,0,0.7,0.3,0.7,0.7l0,0c0,0.4-0.3,0.7-0.7,0.7H40.8L40.8,58.9z
		 M42.4,54l0.4-1.3h6.9c0.4,0,0.7,0.3,0.7,0.7v0c0,0.4-0.3,0.7-0.7,0.7H42.4z M44,49l0.4-1.3h7.1c0.4,0,0.7,0.3,0.7,0.7v0
		c0,0.4-0.3,0.7-0.7,0.7H44z"/>
	<path class="st10" d="M52.6,26.3h19.1c3.8,0,6.9,1.3,6.9,2.8v0c0,1.5-3.1,2.8-6.9,2.8H52.6c-3.8,0-6.9-1.3-6.9-2.8v0
		C45.6,27.6,48.7,26.3,52.6,26.3z"/>
	<path class="st4" d="M73,12.8c1.5-3.8,4.6-3.9,9.2-0.2c1.7,16,5.1,27.4,10.1,34.2h-5.9C77.2,35.1,72.6,20.7,73,12.8L73,12.8z"/>
	<path class="st9" d="M75.4,6.5H49.2c-5.5,0-9.9,4.5-9.9,9.9s4.5,9.9,9.9,9.9h26.2V20c0-1.3,0.5-2.3,1.3-3.2c0.9-0.9,2-1.3,3.2-1.3
		l10.6,0.1c0.6,0,1.1-0.2,1.5-0.6c0.4-0.4,0.6-0.9,0.6-1.5l0-4.8c0-0.6-0.2-1.1-0.6-1.5c-0.4-0.4-0.9-0.6-1.5-0.6L75.4,6.5L75.4,6.5
		z"/>
	<path class="st10" d="M88.7,15.5l1.8,0c0.6,0,1.1-0.2,1.5-0.6c0.4-0.4,0.6-0.9,0.6-1.5l0-4.8c0-0.6-0.2-1.1-0.6-1.5
		c-0.4-0.4-0.9-0.6-1.5-0.6h-1.9L88.7,15.5L88.7,15.5z"/>
</g>
</svg>
