<?xml version="1.0" encoding="utf-8"?>
<!-- Generator: Adobe Illustrator 27.9.0, SVG Export Plug-In . SVG Version: 6.00 Build 0)  -->
<svg version="1.1" id="Layer_1" xmlns="http://www.w3.org/2000/svg" xmlns:xlink="http://www.w3.org/1999/xlink" x="0px" y="0px"
	 viewBox="0 0 128 128" style="enable-background:new 0 0 128 128;" xml:space="preserve">
<style type="text/css">
	.st0{fill-rule:evenodd;clip-rule:evenodd;fill:none;}
	.st1{fill-rule:evenodd;clip-rule:evenodd;fill:#F1892D;}
	.st2{fill:#C5D3E2;}
	.st3{fill:#39D5FF;}
	.st4{fill-rule:evenodd;clip-rule:evenodd;fill:#F9BF3B;}
	.st5{fill-rule:evenodd;clip-rule:evenodd;fill:#F5AB35;}
	.st6{fill-rule:evenodd;clip-rule:evenodd;fill:#39D5FF;}
	.st7{fill-rule:evenodd;clip-rule:evenodd;fill:#C5D3E2;}
	.st8{fill:#FFFFFF;}
	.st9{fill-rule:evenodd;clip-rule:evenodd;fill:#29C5FF;}
	.st10{fill-rule:evenodd;clip-rule:evenodd;fill:#0057A0;}
	.st11{fill:#F1892D;}
	.st12{fill-rule:evenodd;clip-rule:evenodd;fill:#ACBAC9;}
	.st13{fill-rule:evenodd;clip-rule:evenodd;fill:#FFFFFF;}
	.st14{fill-rule:evenodd;clip-rule:evenodd;fill:#D87400;}
	.st15{fill-rule:evenodd;clip-rule:evenodd;fill:#003780;}
	.st16{fill-rule:evenodd;clip-rule:evenodd;fill:#19B5FE;}
	.st17{fill-rule:evenodd;clip-rule:evenodd;fill:#1297E0;}
	.st18{fill:#0057A0;}
	.st19{fill:#F9BF3B;}
	.st20{fill-rule:evenodd;clip-rule:evenodd;fill:#DFECFA;}
	.st21{fill-rule:evenodd;clip-rule:evenodd;fill:#0077C0;}
	.st22{fill-rule:evenodd;clip-rule:evenodd;fill:#E6EEF7;}
	.st23{fill-rule:evenodd;clip-rule:evenodd;fill:#DBC2A4;}
	.st24{fill-rule:evenodd;clip-rule:evenodd;fill:#FFE3C1;}
	.st25{fill-rule:evenodd;clip-rule:evenodd;fill:#353535;}
	.st26{fill-rule:evenodd;clip-rule:evenodd;fill:#3C4A59;}
	.st27{fill-rule:evenodd;clip-rule:evenodd;fill:#6C7A89;}
	.st28{fill-rule:evenodd;clip-rule:evenodd;fill:#4C5A69;}
</style>
<rect class="st0" width="128" height="128"/>
<g id="_2957553815344">
	<path class="st26" d="M7.7,49.7h112.6c0.7,0,1.2,0.5,1.2,1.2l0,0c0,0.7-0.5,1.2-1.2,1.2H7.7c-0.7,0-1.2-0.5-1.2-1.2l0,0
		C6.5,50.2,7,49.7,7.7,49.7z"/>
	<path class="st7" d="M34.9,56.3h58.1v35.5c0,1.2-0.9,2.1-2.1,2.1H37.1c-1.2,0-2.1-0.9-2.1-2.1L34.9,56.3L34.9,56.3z"/>
	<path class="st12" d="M93.1,64.4v27.4c0,1.2-0.9,2.1-2.1,2.1H56.4C68.8,92,75.8,82.8,75,66.7C81.4,65.8,87.4,65.1,93.1,64.4
		L93.1,64.4z"/>
	<path class="st27" d="M34.9,56.3h58.1v14.9c-0.7,0.3-1.5,0.4-2.3,0.4H37.2c-0.8,0-1.6-0.1-2.3-0.4L34.9,56.3L34.9,56.3z"/>
	<path class="st28" d="M93.1,64.4v6.7c-0.7,0.3-1.5,0.4-2.3,0.4H75c0.1-1.5,0.1-3.2,0-4.9C81.4,65.8,87.4,65.1,93.1,64.4L93.1,64.4z
		"/>
	<path class="st7" d="M37.2,34.1h53.5c3.8,0,6.9,3.1,6.9,6.9v19.9c0,3.8-3.1,6.9-6.9,6.9H37.2c-3.8,0-6.9-3.1-6.9-6.9V40.9
		C30.3,37.2,33.4,34.1,37.2,34.1L37.2,34.1z"/>
	<path class="st12" d="M79.5,34.1h11.3c3.8,0,6.9,3.1,6.9,6.9v19.9c0,3.8-3.1,6.9-6.9,6.9h-35C71.4,67.7,80.5,56.3,79.5,34.1
		L79.5,34.1z"/>
	<path class="st26" d="M30.3,54.4c-2,0-3.6-1.6-3.6-3.6c0-2,1.6-3.6,3.6-3.6V54.4L30.3,54.4z"/>
	<path class="st26" d="M97.7,54.4c2,0,3.6-1.6,3.6-3.6c0-2-1.6-3.6-3.6-3.6V54.4L97.7,54.4z"/>
</g>
</svg>
