<?xml version="1.0" encoding="utf-8"?>
<!-- Generator: Adobe Illustrator 27.9.0, SVG Export Plug-In . SVG Version: 6.00 Build 0)  -->
<svg version="1.1" id="Layer_1" xmlns="http://www.w3.org/2000/svg" xmlns:xlink="http://www.w3.org/1999/xlink" x="0px" y="0px"
	 viewBox="0 0 128 128" style="enable-background:new 0 0 128 128;" xml:space="preserve">
<style type="text/css">
	.st0{fill-rule:evenodd;clip-rule:evenodd;fill:none;}
	.st1{fill-rule:evenodd;clip-rule:evenodd;fill:#F1892D;}
	.st2{fill:#C5D3E2;}
	.st3{fill:#39D5FF;}
	.st4{fill-rule:evenodd;clip-rule:evenodd;fill:#F9BF3B;}
	.st5{fill-rule:evenodd;clip-rule:evenodd;fill:#F5AB35;}
	.st6{fill-rule:evenodd;clip-rule:evenodd;fill:#39D5FF;}
	.st7{fill-rule:evenodd;clip-rule:evenodd;fill:#C5D3E2;}
	.st8{fill:#FFFFFF;}
	.st9{fill-rule:evenodd;clip-rule:evenodd;fill:#29C5FF;}
	.st10{fill-rule:evenodd;clip-rule:evenodd;fill:#0057A0;}
	.st11{fill:#F1892D;}
	.st12{fill-rule:evenodd;clip-rule:evenodd;fill:#ACBAC9;}
	.st13{fill-rule:evenodd;clip-rule:evenodd;fill:#FFFFFF;}
	.st14{fill-rule:evenodd;clip-rule:evenodd;fill:#D87400;}
	.st15{fill-rule:evenodd;clip-rule:evenodd;fill:#003780;}
	.st16{fill-rule:evenodd;clip-rule:evenodd;fill:#19B5FE;}
	.st17{fill-rule:evenodd;clip-rule:evenodd;fill:#1297E0;}
	.st18{fill:#0057A0;}
	.st19{fill:#F9BF3B;}
	.st20{fill-rule:evenodd;clip-rule:evenodd;fill:#DFECFA;}
	.st21{fill-rule:evenodd;clip-rule:evenodd;fill:#0077C0;}
	.st22{fill-rule:evenodd;clip-rule:evenodd;fill:#E6EEF7;}
	.st23{fill-rule:evenodd;clip-rule:evenodd;fill:#DBC2A4;}
	.st24{fill-rule:evenodd;clip-rule:evenodd;fill:#FFE3C1;}
	.st25{fill-rule:evenodd;clip-rule:evenodd;fill:#353535;}
	.st26{fill-rule:evenodd;clip-rule:evenodd;fill:#3C4A59;}
	.st27{fill-rule:evenodd;clip-rule:evenodd;fill:#6C7A89;}
	.st28{fill-rule:evenodd;clip-rule:evenodd;fill:#4C5A69;}
</style>
<rect class="st0" width="128" height="128"/>
<g>
	<path class="st1" d="M44.2,61.9h47.9c5.6,0,10.2,4.6,10.2,10.2v14.5c0,4.1-3.4,7.5-7.5,7.5H44.2C44.2,94.1,44.2,61.9,44.2,61.9z"/>
	<path class="st2" d="M53.3,17.2c0-2.9,1.2-5.6,3.1-7.5s4.6-3.1,7.5-3.1c2.9,0,5.6,1.2,7.5,3.1s3.1,4.6,3.1,7.5
		c0,2.9-1.2,5.6-3.1,7.5c-1.6,1.6-3.8,2.8-6.3,3v6.3h-2.6v-8.8H64c2.2,0,4.3-0.9,5.7-2.4c1.5-1.5,2.4-3.5,2.4-5.7
		c0-2.2-0.9-4.3-2.4-5.7C68.3,10,66.2,9.1,64,9.1c-2.2,0-4.3,0.9-5.7,2.4s-2.4,3.5-2.4,5.7H53.3L53.3,17.2z"/>
	<path class="st3" d="M42.6,51c0.5-5.2,2.7-9.8,6.2-13.3h0c3.9-3.9,9.2-6.3,15.1-6.3c5.9,0,11.3,2.4,15.2,6.3
		c3.5,3.5,5.7,8.1,6.2,13.3L111,59c1.8,0.5,3.2,1.6,4.3,3c1,1.4,1.6,3.1,1.6,4.9v2c0,2.3-0.9,4.4-2.4,5.9c-1.5,1.5-3.6,2.4-5.9,2.4
		h-89c-2.3,0-4.4-0.9-5.9-2.4c-1.5-1.5-2.4-3.6-2.4-5.9v-2c0-1.8,0.6-3.5,1.6-4.9c1-1.4,2.5-2.5,4.3-3L42.6,51L42.6,51z M52.5,41.4
		c-2.9,3-4.8,7-4.8,11.5v1.9l-29.1,9c-0.7,0.2-1.3,0.6-1.6,1.1c-0.4,0.5-0.6,1.2-0.6,1.9v2c0,0.9,0.4,1.7,0.9,2.3
		c0.6,0.6,1.4,0.9,2.3,0.9h89c0.9,0,1.7-0.4,2.3-0.9c0.6-0.6,0.9-1.4,0.9-2.3v-2c0-0.7-0.2-1.4-0.6-1.9c-0.4-0.5-1-0.9-1.6-1.1
		l-29.1-9v-1.9c0-4.5-1.8-8.6-4.8-11.5c-3-3-7-4.8-11.5-4.8C59.5,36.6,55.4,38.5,52.5,41.4L52.5,41.4z"/>
	<path class="st4" d="M38.6,61.9h40.7h12.8c5.6,0,10.2,4.6,10.2,10.2v0h-0.7c-2.9-6.1-13.2-5.2-13.6,0.6v40.1c0,4.8-3.9,8.7-8.7,8.7
		H38.6c-4.8,0-8.7-3.9-8.7-8.7V70.6C29.9,65.8,33.8,61.9,38.6,61.9z"/>
</g>
</svg>
