<?xml version="1.0" encoding="utf-8"?>
<!-- Generator: Adobe Illustrator 27.9.0, SVG Export Plug-In . SVG Version: 6.00 Build 0)  -->
<svg version="1.1" id="Layer_1" xmlns="http://www.w3.org/2000/svg" xmlns:xlink="http://www.w3.org/1999/xlink" x="0px" y="0px"
	 viewBox="0 0 128 128" style="enable-background:new 0 0 128 128;" xml:space="preserve">
<style type="text/css">
	.st0{fill-rule:evenodd;clip-rule:evenodd;fill:none;}
	.st1{fill-rule:evenodd;clip-rule:evenodd;fill:#F1892D;}
	.st2{fill:#C5D3E2;}
	.st3{fill:#39D5FF;}
	.st4{fill-rule:evenodd;clip-rule:evenodd;fill:#F9BF3B;}
	.st5{fill-rule:evenodd;clip-rule:evenodd;fill:#F5AB35;}
	.st6{fill-rule:evenodd;clip-rule:evenodd;fill:#39D5FF;}
	.st7{fill-rule:evenodd;clip-rule:evenodd;fill:#C5D3E2;}
	.st8{fill:#FFFFFF;}
	.st9{fill-rule:evenodd;clip-rule:evenodd;fill:#29C5FF;}
	.st10{fill-rule:evenodd;clip-rule:evenodd;fill:#0057A0;}
	.st11{fill:#F1892D;}
	.st12{fill-rule:evenodd;clip-rule:evenodd;fill:#ACBAC9;}
	.st13{fill-rule:evenodd;clip-rule:evenodd;fill:#FFFFFF;}
	.st14{fill-rule:evenodd;clip-rule:evenodd;fill:#D87400;}
	.st15{fill-rule:evenodd;clip-rule:evenodd;fill:#003780;}
	.st16{fill-rule:evenodd;clip-rule:evenodd;fill:#19B5FE;}
	.st17{fill-rule:evenodd;clip-rule:evenodd;fill:#1297E0;}
	.st18{fill:#0057A0;}
	.st19{fill:#F9BF3B;}
	.st20{fill-rule:evenodd;clip-rule:evenodd;fill:#DFECFA;}
	.st21{fill-rule:evenodd;clip-rule:evenodd;fill:#0077C0;}
	.st22{fill-rule:evenodd;clip-rule:evenodd;fill:#E6EEF7;}
	.st23{fill-rule:evenodd;clip-rule:evenodd;fill:#DBC2A4;}
	.st24{fill-rule:evenodd;clip-rule:evenodd;fill:#FFE3C1;}
	.st25{fill-rule:evenodd;clip-rule:evenodd;fill:#353535;}
	.st26{fill-rule:evenodd;clip-rule:evenodd;fill:#3C4A59;}
	.st27{fill-rule:evenodd;clip-rule:evenodd;fill:#6C7A89;}
	.st28{fill-rule:evenodd;clip-rule:evenodd;fill:#4C5A69;}
</style>
<rect class="st0" width="128" height="128"/>
<g id="_2957100313680">
	<path class="st9" d="M21.7,6.5h84.5c2.6,0,4.6,2.1,4.6,4.6v84.5c0,2.6-2.1,4.6-4.6,4.6H21.7c-2.6,0-4.6-2.1-4.6-4.6V11.1
		C17.1,8.6,19.2,6.5,21.7,6.5z"/>
	<path class="st22" d="M21.7,9c-1.2,0-2.1,1-2.1,2.1v84.5c0,1.2,1,2.1,2.1,2.1h84.5c1.2,0,2.1-1,2.1-2.1V11.2c0-1.2-1-2.1-2.1-2.1
		C106.3,9,21.7,9,21.7,9z"/>
	<path class="st13" d="M108.4,79V43L95.1,9H81L108.4,79L108.4,79z M19.6,16.1v36l17.9,45.8h14.1L19.6,16.1z M67,97.8h34.8L67,9H32.2
		L67,97.8z"/>
	<polygon class="st9" points="65.3,6.5 65.3,52.2 110.9,52.2 110.9,54.7 65.3,54.7 65.3,100.3 62.7,100.3 62.7,54.7 17.1,54.7 
		17.1,52.2 62.7,52.2 62.7,6.5 	"/>
	<g>
		<path class="st1" d="M99.8,120l-0.7,0.4c-2.3,1.3-4.8,1.4-7.3,0.5c-2.5-0.9-4.3-2.7-5.2-5.1l-14-36.2l7.3-4l22.8,31.4
			c1.6,2.1,2.1,4.6,1.5,7.1C103.6,116.8,102.1,118.8,99.8,120L99.8,120z"/>
		<circle class="st13" cx="94.8" cy="111.6" r="4.7"/>
		<path class="st5" d="M82.3,78.9L74,83.4c-1.7,1-3.9,0.3-4.9-1.4l-2.8-5.1l14.7-8l2.8,5.1C84.7,75.7,84.1,77.9,82.3,78.9L82.3,78.9
			z"/>
		<path class="st4" d="M101.3,60.5l-53,28.9c-2.2,1.2-5,0.4-6.2-1.8l-3.5-6.4l61.1-33.3l3.5,6.4C104.3,56.5,103.5,59.3,101.3,60.5z"
			/>
		<polygon class="st10" points="99.6,47.8 38.5,81.1 32.1,75.9 98.7,39.6 		"/>
	</g>
</g>
</svg>
