<?xml version="1.0" encoding="utf-8"?>
<!-- Generator: Adobe Illustrator 27.9.0, SVG Export Plug-In . SVG Version: 6.00 Build 0)  -->
<svg version="1.1" id="Layer_1" xmlns="http://www.w3.org/2000/svg" xmlns:xlink="http://www.w3.org/1999/xlink" x="0px" y="0px"
	 viewBox="0 0 128 128" style="enable-background:new 0 0 128 128;" xml:space="preserve">
<style type="text/css">
	.st0{fill-rule:evenodd;clip-rule:evenodd;fill:none;}
	.st1{fill-rule:evenodd;clip-rule:evenodd;fill:#F1892D;}
	.st2{fill:#C5D3E2;}
	.st3{fill:#39D5FF;}
	.st4{fill-rule:evenodd;clip-rule:evenodd;fill:#F9BF3B;}
	.st5{fill-rule:evenodd;clip-rule:evenodd;fill:#F5AB35;}
	.st6{fill-rule:evenodd;clip-rule:evenodd;fill:#39D5FF;}
	.st7{fill-rule:evenodd;clip-rule:evenodd;fill:#C5D3E2;}
	.st8{fill:#FFFFFF;}
	.st9{fill-rule:evenodd;clip-rule:evenodd;fill:#29C5FF;}
	.st10{fill-rule:evenodd;clip-rule:evenodd;fill:#0057A0;}
	.st11{fill:#F1892D;}
	.st12{fill-rule:evenodd;clip-rule:evenodd;fill:#ACBAC9;}
	.st13{fill-rule:evenodd;clip-rule:evenodd;fill:#FFFFFF;}
	.st14{fill-rule:evenodd;clip-rule:evenodd;fill:#D87400;}
	.st15{fill-rule:evenodd;clip-rule:evenodd;fill:#003780;}
	.st16{fill-rule:evenodd;clip-rule:evenodd;fill:#19B5FE;}
	.st17{fill-rule:evenodd;clip-rule:evenodd;fill:#1297E0;}
	.st18{fill:#0057A0;}
	.st19{fill:#F9BF3B;}
	.st20{fill-rule:evenodd;clip-rule:evenodd;fill:#DFECFA;}
	.st21{fill-rule:evenodd;clip-rule:evenodd;fill:#0077C0;}
	.st22{fill-rule:evenodd;clip-rule:evenodd;fill:#E6EEF7;}
	.st23{fill-rule:evenodd;clip-rule:evenodd;fill:#DBC2A4;}
	.st24{fill-rule:evenodd;clip-rule:evenodd;fill:#FFE3C1;}
	.st25{fill-rule:evenodd;clip-rule:evenodd;fill:#353535;}
	.st26{fill-rule:evenodd;clip-rule:evenodd;fill:#3C4A59;}
	.st27{fill-rule:evenodd;clip-rule:evenodd;fill:#6C7A89;}
	.st28{fill-rule:evenodd;clip-rule:evenodd;fill:#4C5A69;}
</style>
<rect class="st0" width="128" height="128"/>
<g>
	<rect x="69.5" y="21.4" class="st10" width="21.6" height="15.3"/>
	<path class="st4" d="M90.5,6.5H70.1c-3,0-5.5,2.5-5.5,5.5v9.4h31.3V12C95.9,9,93.5,6.5,90.5,6.5z"/>
	<path class="st6" d="M79,28h-8.6c-27,0-48.9,22-48.9,48.9v35.5c0,4.9,4,9,9,9h67.2c4.9,0,9-4,9-9V55.6C106.6,40.4,94.2,28,79,28
		L79,28z"/>
	<path class="st13" d="M57.6,38.9c11.9-2.3,9,15.2-0.4,23.6c-9.3,8.3-27,10-24.9,2C36.1,52.5,45.6,43,57.6,38.9L57.6,38.9z"/>
	<path class="st9" d="M86.3,55.6v56.9c0,4.9-4,9-9,9h20.2c4.9,0,9-4,9-9V55.6c0-10.8-6.3-20.3-15.5-24.7C87.4,29,83.3,28,79,28h-8.6
		c-0.3,0-0.6,0-0.9,0c-2,0-3.9,0.2-5.8,0.4c2,0.4,3.9,1,5.8,1.7c3.5,1.5,6.6,3.7,9.2,6.4C83.4,41.6,86.3,48.2,86.3,55.6L86.3,55.6z"
		/>
	<path class="st10" d="M21.5,74.1c-0.1,1-0.1,1.9-0.1,2.9V105h85.1v-31H21.5z"/>
	<polygon class="st15" points="86.3,105 106.6,105 106.6,74.1 86.3,74.1 	"/>
	<path class="st5" d="M85.6,12v9.4h5.5h4.9V12c0-3-2.5-5.5-5.5-5.5H80.1C83.1,6.5,85.6,9,85.6,12z"/>
</g>
</svg>
