<?xml version="1.0" encoding="utf-8"?>
<!-- Generator: Adobe Illustrator 27.9.0, SVG Export Plug-In . SVG Version: 6.00 Build 0)  -->
<svg version="1.1" id="Layer_1" xmlns="http://www.w3.org/2000/svg" xmlns:xlink="http://www.w3.org/1999/xlink" x="0px" y="0px"
	 viewBox="0 0 128 128" style="enable-background:new 0 0 128 128;" xml:space="preserve">
<style type="text/css">
	.st0{fill-rule:evenodd;clip-rule:evenodd;fill:none;}
	.st1{fill-rule:evenodd;clip-rule:evenodd;fill:#F1892D;}
	.st2{fill:#C5D3E2;}
	.st3{fill:#39D5FF;}
	.st4{fill-rule:evenodd;clip-rule:evenodd;fill:#F9BF3B;}
	.st5{fill-rule:evenodd;clip-rule:evenodd;fill:#F5AB35;}
	.st6{fill-rule:evenodd;clip-rule:evenodd;fill:#39D5FF;}
	.st7{fill-rule:evenodd;clip-rule:evenodd;fill:#C5D3E2;}
	.st8{fill:#FFFFFF;}
	.st9{fill-rule:evenodd;clip-rule:evenodd;fill:#29C5FF;}
	.st10{fill-rule:evenodd;clip-rule:evenodd;fill:#0057A0;}
	.st11{fill:#F1892D;}
	.st12{fill-rule:evenodd;clip-rule:evenodd;fill:#ACBAC9;}
	.st13{fill-rule:evenodd;clip-rule:evenodd;fill:#FFFFFF;}
	.st14{fill-rule:evenodd;clip-rule:evenodd;fill:#D87400;}
	.st15{fill-rule:evenodd;clip-rule:evenodd;fill:#003780;}
	.st16{fill-rule:evenodd;clip-rule:evenodd;fill:#19B5FE;}
	.st17{fill-rule:evenodd;clip-rule:evenodd;fill:#1297E0;}
	.st18{fill:#0057A0;}
	.st19{fill:#F9BF3B;}
	.st20{fill-rule:evenodd;clip-rule:evenodd;fill:#DFECFA;}
	.st21{fill-rule:evenodd;clip-rule:evenodd;fill:#0077C0;}
	.st22{fill-rule:evenodd;clip-rule:evenodd;fill:#E6EEF7;}
	.st23{fill-rule:evenodd;clip-rule:evenodd;fill:#DBC2A4;}
	.st24{fill-rule:evenodd;clip-rule:evenodd;fill:#FFE3C1;}
	.st25{fill-rule:evenodd;clip-rule:evenodd;fill:#353535;}
	.st26{fill-rule:evenodd;clip-rule:evenodd;fill:#3C4A59;}
	.st27{fill-rule:evenodd;clip-rule:evenodd;fill:#6C7A89;}
	.st28{fill-rule:evenodd;clip-rule:evenodd;fill:#4C5A69;}
</style>
<rect class="st0" width="128" height="128"/>
<g>
	<path class="st4" d="M12,61h104v29.5c0,12-9.8,21.8-21.8,21.8H33.8c-12,0-21.8-9.8-21.8-21.8C12,90.5,12,61,12,61z"/>
	<polygon class="st5" points="116,63.3 116,73.8 12,73.8 12,63.3 	"/>
	<path class="st1" d="M12.1,61h103.7c3.1,0,5.6,2.3,5.6,5.2v0c0,2.9-2.5,5.2-5.6,5.2H12.1c-3.1,0-5.6-2.3-5.6-5.2v0
		C6.5,63.4,9,61,12.1,61z"/>
	<path class="st6" d="M53.8,61h59.7c0-0.4,0.1-0.9,0.1-1.3c0-8.1-6.6-14.7-14.7-14.7c-0.6,0-1.3,0-1.9,0.1
		c-2.4-5.8-8.1-9.9-14.8-9.9c-8.5,0-15.4,6.6-16,14.9l-0.2,0C59.6,50.1,54.4,54.9,53.8,61L53.8,61z"/>
	<circle class="st6" cx="60.1" cy="20.9" r="5.2"/>
	<circle class="st6" cx="63.1" cy="39" r="3.7"/>
	<circle class="st6" cx="48.9" cy="47.8" r="5.2"/>
	<circle class="st7" cx="42.1" cy="31.2" r="3.7"/>
	<path class="st8" d="M82.2,41.6c-1.5,0.1-2.8,0.6-3.9,1.3c-1.2,0.8-2.2,1.8-2.8,3.1c-0.2,0.3-0.5,0.4-0.9,0.3L73.9,46
		c-0.2-0.1-0.3-0.2-0.4-0.4c-0.1-0.2-0.1-0.4,0-0.5c0.8-1.6,2-2.9,3.5-3.9c1.4-0.9,3.1-1.5,4.9-1.7c0.2,0,0.4,0,0.5,0.2
		c0.1,0.1,0.2,0.3,0.2,0.5v0.6C82.8,41.3,82.5,41.6,82.2,41.6L82.2,41.6z"/>
</g>
</svg>
