<?xml version="1.0" encoding="utf-8"?>
<!-- Generator: Adobe Illustrator 27.9.0, SVG Export Plug-In . SVG Version: 6.00 Build 0)  -->
<svg version="1.1" id="Layer_1" xmlns="http://www.w3.org/2000/svg" xmlns:xlink="http://www.w3.org/1999/xlink" x="0px" y="0px"
	 viewBox="0 0 128 128" style="enable-background:new 0 0 128 128;" xml:space="preserve">
<style type="text/css">
	.st0{fill-rule:evenodd;clip-rule:evenodd;fill:none;}
	.st1{fill-rule:evenodd;clip-rule:evenodd;fill:#F1892D;}
	.st2{fill:#C5D3E2;}
	.st3{fill:#39D5FF;}
	.st4{fill-rule:evenodd;clip-rule:evenodd;fill:#F9BF3B;}
	.st5{fill-rule:evenodd;clip-rule:evenodd;fill:#F5AB35;}
	.st6{fill-rule:evenodd;clip-rule:evenodd;fill:#39D5FF;}
	.st7{fill-rule:evenodd;clip-rule:evenodd;fill:#C5D3E2;}
	.st8{fill:#FFFFFF;}
	.st9{fill-rule:evenodd;clip-rule:evenodd;fill:#29C5FF;}
	.st10{fill-rule:evenodd;clip-rule:evenodd;fill:#0057A0;}
	.st11{fill:#F1892D;}
	.st12{fill-rule:evenodd;clip-rule:evenodd;fill:#ACBAC9;}
	.st13{fill-rule:evenodd;clip-rule:evenodd;fill:#FFFFFF;}
	.st14{fill-rule:evenodd;clip-rule:evenodd;fill:#D87400;}
	.st15{fill-rule:evenodd;clip-rule:evenodd;fill:#003780;}
	.st16{fill-rule:evenodd;clip-rule:evenodd;fill:#19B5FE;}
	.st17{fill-rule:evenodd;clip-rule:evenodd;fill:#1297E0;}
	.st18{fill:#0057A0;}
	.st19{fill:#F9BF3B;}
	.st20{fill-rule:evenodd;clip-rule:evenodd;fill:#DFECFA;}
	.st21{fill-rule:evenodd;clip-rule:evenodd;fill:#0077C0;}
	.st22{fill-rule:evenodd;clip-rule:evenodd;fill:#E6EEF7;}
	.st23{fill-rule:evenodd;clip-rule:evenodd;fill:#DBC2A4;}
	.st24{fill-rule:evenodd;clip-rule:evenodd;fill:#FFE3C1;}
	.st25{fill-rule:evenodd;clip-rule:evenodd;fill:#353535;}
	.st26{fill-rule:evenodd;clip-rule:evenodd;fill:#3C4A59;}
	.st27{fill-rule:evenodd;clip-rule:evenodd;fill:#6C7A89;}
	.st28{fill-rule:evenodd;clip-rule:evenodd;fill:#4C5A69;}
</style>
<rect class="st0" width="128" height="128"/>
<g id="_2957553848704">
	<path class="st4" d="M5.5,121.2h19.1l4.3-28.1c0.8-5.1,4.6-9.1,9.8-9.1h48.6c5.2,0,9,4,9.8,9.1l4.3,28.1h19.1L104.8,18
		c-1-6.3-5.7-11.2-12-11.2H33.2c-6.3,0-11.1,4.9-12,11.2L5.5,121.2L5.5,121.2z"/>
	<path class="st1" d="M103.2,13.2c-2.1-3.8-5.8-6.4-10.4-6.4H33.2c-4.6,0-8.4,2.6-10.4,6.4H103.2z"/>
	<path class="st1" d="M84.3,85l4.3,28.1h11.5l-3-20C96.3,88,92.4,84,87.3,84h-3.1C84.2,84.3,84.3,84.6,84.3,85L84.3,85z"/>
	<path class="st1" d="M41.7,85l-4.3,28.1H25.9l3-20c0.8-5.1,4.6-9.1,9.8-9.1h3.1C41.8,84.3,41.7,84.6,41.7,85L41.7,85z"/>
	<path class="st8" d="M66.1,26.1l21.8,37.7c0.3,0.6,0.5,1.2,0.5,1.8c0,0.6-0.2,1.2-0.5,1.8c-0.3,0.6-0.8,1-1.3,1.3
		c-0.5,0.3-1.1,0.5-1.8,0.5H41.2c-0.6,0-1.2-0.2-1.8-0.5c-0.5-0.3-1-0.7-1.3-1.3c-0.3-0.6-0.5-1.2-0.5-1.8c0-0.6,0.2-1.2,0.5-1.8
		l21.8-37.7c0.3-0.6,0.8-1,1.3-1.3c0.5-0.3,1.1-0.5,1.8-0.5c0.6,0,1.2,0.2,1.8,0.5C65.3,25.1,65.8,25.5,66.1,26.1L66.1,26.1z
		 M74.5,46.4L63.6,27.5c-0.1-0.1-0.2-0.2-0.3-0.3c-0.1-0.1-0.2-0.1-0.4-0.1c-0.1,0-0.3,0-0.4,0.1c-0.1,0.1-0.2,0.1-0.3,0.3
		L40.6,65.2c-0.1,0.1-0.1,0.2-0.1,0.4c0,0.1,0,0.2,0.1,0.4c0.1,0.1,0.2,0.2,0.3,0.3c0.1,0.1,0.2,0.1,0.4,0.1h43.6
		c0.1,0,0.3,0,0.4-0.1c0.1-0.1,0.2-0.2,0.3-0.3c0.1-0.1,0.1-0.2,0.1-0.4c0-0.1,0-0.2-0.1-0.4C85.4,65.2,74.5,46.4,74.5,46.4z"/>
	<path class="st1" d="M85.4,65.2L74.5,46.4L63.6,27.5c-0.1-0.1-0.2-0.2-0.3-0.3c-0.1-0.1-0.2-0.1-0.4-0.1c-0.1,0-0.3,0-0.4,0.1
		c-0.1,0.1-0.2,0.1-0.3,0.3L40.6,65.2c-0.1,0.1-0.1,0.2-0.1,0.4c0,0.1,0,0.2,0.1,0.4c0.1,0.1,0.2,0.2,0.3,0.3
		c0.1,0.1,0.2,0.1,0.4,0.1h43.6c0.1,0,0.3,0,0.4-0.1c0.1-0.1,0.2-0.2,0.3-0.3c0.1-0.1,0.1-0.2,0.1-0.4
		C85.5,65.5,85.5,65.3,85.4,65.2z"/>
	<g>
		<path class="st13" d="M65.6,54.1l0.1-16c0-0.6-0.2-1.2-0.6-1.6c-0.4-0.4-1-0.7-1.6-0.7h-0.9c-0.6,0-1.2,0.2-1.6,0.7
			c-0.4,0.4-0.7,1-0.6,1.6l0.1,16c0,1.2,1,2.2,2.2,2.2h0.6C64.5,56.3,65.5,55.3,65.6,54.1L65.6,54.1z"/>
		<path class="st13" d="M65.1,59.7c-0.6-0.6-1.3-0.9-2.1-0.9c-0.8,0-1.5,0.3-2.1,0.9c-0.6,0.6-0.8,1.2-0.8,2c0,0.8,0.3,1.5,0.8,2
			c0.6,0.5,1.3,0.8,2.1,0.8c0.8,0,1.5-0.3,2.1-0.8c0.6-0.5,0.8-1.2,0.8-2C65.9,61,65.7,60.3,65.1,59.7z"/>
	</g>
</g>
</svg>
