<?xml version="1.0" encoding="utf-8"?>
<!-- Generator: Adobe Illustrator 27.9.0, SVG Export Plug-In . SVG Version: 6.00 Build 0)  -->
<svg version="1.1" id="Layer_1" xmlns="http://www.w3.org/2000/svg" xmlns:xlink="http://www.w3.org/1999/xlink" x="0px" y="0px"
	 viewBox="0 0 128 128" style="enable-background:new 0 0 128 128;" xml:space="preserve">
<style type="text/css">
	.st0{fill-rule:evenodd;clip-rule:evenodd;fill:none;}
	.st1{fill-rule:evenodd;clip-rule:evenodd;fill:#F1892D;}
	.st2{fill:#C5D3E2;}
	.st3{fill:#39D5FF;}
	.st4{fill-rule:evenodd;clip-rule:evenodd;fill:#F9BF3B;}
	.st5{fill-rule:evenodd;clip-rule:evenodd;fill:#F5AB35;}
	.st6{fill-rule:evenodd;clip-rule:evenodd;fill:#39D5FF;}
	.st7{fill-rule:evenodd;clip-rule:evenodd;fill:#C5D3E2;}
	.st8{fill:#FFFFFF;}
	.st9{fill-rule:evenodd;clip-rule:evenodd;fill:#29C5FF;}
	.st10{fill-rule:evenodd;clip-rule:evenodd;fill:#0057A0;}
	.st11{fill:#F1892D;}
	.st12{fill-rule:evenodd;clip-rule:evenodd;fill:#ACBAC9;}
	.st13{fill-rule:evenodd;clip-rule:evenodd;fill:#FFFFFF;}
	.st14{fill-rule:evenodd;clip-rule:evenodd;fill:#D87400;}
	.st15{fill-rule:evenodd;clip-rule:evenodd;fill:#003780;}
	.st16{fill-rule:evenodd;clip-rule:evenodd;fill:#19B5FE;}
	.st17{fill-rule:evenodd;clip-rule:evenodd;fill:#1297E0;}
	.st18{fill:#0057A0;}
	.st19{fill:#F9BF3B;}
	.st20{fill-rule:evenodd;clip-rule:evenodd;fill:#DFECFA;}
	.st21{fill-rule:evenodd;clip-rule:evenodd;fill:#0077C0;}
	.st22{fill-rule:evenodd;clip-rule:evenodd;fill:#E6EEF7;}
	.st23{fill-rule:evenodd;clip-rule:evenodd;fill:#DBC2A4;}
	.st24{fill-rule:evenodd;clip-rule:evenodd;fill:#FFE3C1;}
	.st25{fill-rule:evenodd;clip-rule:evenodd;fill:#353535;}
	.st26{fill-rule:evenodd;clip-rule:evenodd;fill:#3C4A59;}
	.st27{fill-rule:evenodd;clip-rule:evenodd;fill:#6C7A89;}
	.st28{fill-rule:evenodd;clip-rule:evenodd;fill:#4C5A69;}
</style>
<rect class="st0" width="128" height="128"/>
<g id="_2957227663968">
	<path class="st4" d="M77.6,62.1l10.3,23.7c0.9,2.1,3.3,3,5.4,2.1L119,76.7c2.1-0.9,3-3.3,2.1-5.4l-10.7-24.5
		c-0.5-1.2-1.1-2.1-2-3.1L87.8,20.4c-1.9-3.3-7.8-1.4-17.7,5.7l6.2,14.2c0.8,1.7,1.1,3.4,1,5.3l-0.6,11.2
		C76.5,58.7,76.8,60.4,77.6,62.1L77.6,62.1z"/>
	<path class="st1" d="M84.2,17.6l-12.6,5.5c-2.5,1.1-4.2,2.8-3.8,3.8l0,0c0.4,1,2.8,0.9,5.3-0.2l12.6-5.5c2.5-1.1,4.2-2.8,3.8-3.8
		l0,0C89.1,16.4,86.7,16.5,84.2,17.6z"/>
	<rect x="73.8" y="12.2" transform="matrix(0.9165 -0.4 0.4 0.9165 -0.3724 31.9863)" class="st1" width="5.4" height="9.3"/>
	<path class="st10" d="M85.2,10.8L61.3,21.2c-1,0.4-1.8,1-2.5,1.7l0,0c-0.7,0.7-1.2,1.6-1.5,2.6l-2.1,6.3l-4.2-1.4l2.1-6.3
		c0.5-1.6,1.4-3.1,2.5-4.2l0,0c1.1-1.2,2.4-2.1,4-2.8L83.4,6.7L85.2,10.8L85.2,10.8z"/>
	<path class="st10" d="M26.6,121.3l15.6-9.7l-1.3-2.5l4.6-2.9c0.6-0.4,1.2-0.7,1.9-0.8c0.6-0.2,1.3-0.3,2-0.3H74
		c0.9,0,1.8-0.1,2.6-0.3l0,0c0.9-0.2,1.7-0.5,2.5-0.9l24.1-12.3c1-0.5,1.8-1.2,2.5-2c0.6-0.8,1.1-1.8,1.3-2.9c0.2-1.1,0.2-2.2,0-3.2
		c-0.2-1-0.7-2-1.4-2.9l-0.3-0.3c-1-1.3-2.4-2.1-3.9-2.5c-1.5-0.4-3.1-0.3-4.6,0.4L81.3,85v-2.5c0-1.5-0.6-2.9-1.6-4
		c-1-1-2.4-1.6-4-1.6H48.2c-1.1,0-2.1,0.1-3.1,0.4c-1,0.3-1.9,0.7-2.9,1.3l-12.7,8L28.2,84L6.5,97.6
		C9.1,107.7,13.1,115.8,26.6,121.3L26.6,121.3z M98.3,81.8l-21,9.2l0-0.1c-0.5,0.2-1,0.2-1.6,0.2l-18.7,0c-0.9,0-1.6-0.7-1.6-1.6
		l0-0.8c0-0.9,0.7-1.6,1.6-1.6h18.7c0.5,0,0.9-0.2,1.2-0.5c0.3-0.3,0.5-0.7,0.5-1.2v-3.1c0-0.5-0.2-0.9-0.5-1.2l0,0
		c-0.3-0.3-0.7-0.5-1.2-0.5H48.2c-0.7,0-1.4,0.1-2,0.3c-0.6,0.2-1.2,0.5-1.9,0.8l-13,8.2l7.9,15.6l4.3-2.7c0.9-0.6,1.9-1,2.9-1.3
		c1-0.3,2-0.4,3.1-0.4H74c0.6,0,1.2-0.1,1.7-0.2l0,0c0.5-0.1,1.1-0.3,1.6-0.6l24.1-12.2c0.5-0.2,0.9-0.5,1.1-0.9
		c0.3-0.4,0.5-0.8,0.6-1.3c0.1-0.5,0.1-1,0-1.5c-0.1-0.5-0.3-0.9-0.7-1.3l-0.3-0.3c-0.5-0.6-1.1-1-1.8-1.2
		C99.8,81.5,99,81.5,98.3,81.8L98.3,81.8z"/>
	<path class="st13" d="M98.3,81.8l-21,9.2l0-0.1c-0.5,0.2-1,0.2-1.6,0.2l-18.7,0c-0.9,0-1.6-0.7-1.6-1.6l0-0.8
		c0-0.9,0.7-1.6,1.6-1.6h18.7c0.5,0,0.9-0.2,1.2-0.5c0.3-0.3,0.5-0.7,0.5-1.2v-3.1c0-0.5-0.2-0.9-0.5-1.2c-0.3-0.3-0.7-0.5-1.2-0.5
		H48.2c-0.7,0-1.4,0.1-2,0.3c-0.6,0.2-1.2,0.5-1.9,0.8l-13,8.2l7.9,15.6l4.3-2.7c0.9-0.6,1.9-1,2.9-1.3c1-0.3,2-0.4,3.1-0.4H74
		c0.6,0,1.2-0.1,1.7-0.2c0.5-0.1,1.1-0.3,1.6-0.6l24.1-12.2c0.5-0.2,0.9-0.5,1.1-0.9c0.3-0.4,0.5-0.8,0.6-1.3c0.1-0.5,0.1-1,0-1.5
		c-0.1-0.5-0.3-0.9-0.7-1.3l-0.3-0.3c-0.5-0.6-1.1-1-1.8-1.2C99.8,81.5,99,81.5,98.3,81.8L98.3,81.8z"/>
	<path class="st1" d="M105.1,70.4l-6.7,2.9c-2.1,0.9-4.4,0-5.3-2.1l-6.5-14.8c-0.9-2.1,0-4.4,2.1-5.3l6.7-2.9c2.1-0.9,4.4,0,5.3,2.1
		l6.5,14.8C108,67.1,107.1,69.5,105.1,70.4z"/>
	<path class="st17" d="M53.2,35.3c-2.8,5-10.3,11.1-4.8,16.6l0,0c1.3,1.3,3.1,2,4.8,2s3.5-0.7,4.8-2h0C63.5,46.4,56,40.3,53.2,35.3
		L53.2,35.3z"/>
	<path class="st17" d="M58.9,58.8c-1.6,2.9-5.9,6.4-2.8,9.6l0,0c0.8,0.8,1.8,1.2,2.8,1.2s2-0.4,2.8-1.2l0,0
		C64.9,65.2,60.6,61.7,58.9,58.8z"/>
</g>
</svg>
