<?xml version="1.0" encoding="utf-8"?>
<!-- Generator: Adobe Illustrator 27.9.0, SVG Export Plug-In . SVG Version: 6.00 Build 0)  -->
<svg version="1.1" id="Layer_1" xmlns="http://www.w3.org/2000/svg" xmlns:xlink="http://www.w3.org/1999/xlink" x="0px" y="0px"
	 viewBox="0 0 128 128" style="enable-background:new 0 0 128 128;" xml:space="preserve">
<style type="text/css">
	.st0{fill-rule:evenodd;clip-rule:evenodd;fill:none;}
	.st1{fill-rule:evenodd;clip-rule:evenodd;fill:#F1892D;}
	.st2{fill:#C5D3E2;}
	.st3{fill:#39D5FF;}
	.st4{fill-rule:evenodd;clip-rule:evenodd;fill:#F9BF3B;}
	.st5{fill-rule:evenodd;clip-rule:evenodd;fill:#F5AB35;}
	.st6{fill-rule:evenodd;clip-rule:evenodd;fill:#39D5FF;}
	.st7{fill-rule:evenodd;clip-rule:evenodd;fill:#C5D3E2;}
	.st8{fill:#FFFFFF;}
	.st9{fill-rule:evenodd;clip-rule:evenodd;fill:#29C5FF;}
	.st10{fill-rule:evenodd;clip-rule:evenodd;fill:#0057A0;}
	.st11{fill:#F1892D;}
	.st12{fill-rule:evenodd;clip-rule:evenodd;fill:#ACBAC9;}
	.st13{fill-rule:evenodd;clip-rule:evenodd;fill:#FFFFFF;}
	.st14{fill-rule:evenodd;clip-rule:evenodd;fill:#D87400;}
	.st15{fill-rule:evenodd;clip-rule:evenodd;fill:#003780;}
	.st16{fill-rule:evenodd;clip-rule:evenodd;fill:#19B5FE;}
	.st17{fill-rule:evenodd;clip-rule:evenodd;fill:#1297E0;}
	.st18{fill:#0057A0;}
	.st19{fill:#F9BF3B;}
	.st20{fill-rule:evenodd;clip-rule:evenodd;fill:#DFECFA;}
	.st21{fill-rule:evenodd;clip-rule:evenodd;fill:#0077C0;}
	.st22{fill-rule:evenodd;clip-rule:evenodd;fill:#E6EEF7;}
	.st23{fill-rule:evenodd;clip-rule:evenodd;fill:#DBC2A4;}
	.st24{fill-rule:evenodd;clip-rule:evenodd;fill:#FFE3C1;}
	.st25{fill-rule:evenodd;clip-rule:evenodd;fill:#353535;}
	.st26{fill-rule:evenodd;clip-rule:evenodd;fill:#3C4A59;}
	.st27{fill-rule:evenodd;clip-rule:evenodd;fill:#6C7A89;}
	.st28{fill-rule:evenodd;clip-rule:evenodd;fill:#4C5A69;}
</style>
<rect class="st0" width="128" height="128"/>
<g>
	<circle class="st15" cx="64" cy="66.8" r="38.6"/>
	<circle class="st6" cx="64" cy="66.8" r="36.6"/>
	<circle class="st16" cx="64" cy="66.8" r="21.9"/>
	<path class="st8" d="M81.2,40.2c4.5,2.9,8,6.8,10.5,11.3c2.5,4.5,3.9,9.7,3.9,15c0,0.4-0.2,0.8-0.5,1.1c-0.3,0.3-0.7,0.4-1.1,0.4
		l-0.3,0c-0.8,0-1.5-0.7-1.5-1.5c0-4.7-1.3-9.3-3.5-13.3c-2.2-4-5.4-7.5-9.4-10.1c-0.7-0.4-0.9-1.3-0.5-2.1l0.2-0.3
		c0.2-0.4,0.5-0.6,1-0.7C80.4,39.9,80.8,40,81.2,40.2L81.2,40.2z"/>
	<path class="st8" d="M61.8,35.2c1.9-0.1,3.8-0.1,5.7,0.1c1.9,0.2,3.8,0.6,5.6,1.2c0.4,0.1,0.7,0.4,0.9,0.8c0.2,0.4,0.2,0.8,0.1,1.2
		l-0.1,0.3c-0.3,0.8-1.1,1.2-1.9,0.9c-1.6-0.5-3.3-0.8-5-1s-3.4-0.2-5.1-0.1c-0.8,0.1-1.5-0.5-1.6-1.3l0-0.3
		c-0.1-0.4,0.1-0.8,0.3-1.2C61,35.5,61.4,35.3,61.8,35.2L61.8,35.2z"/>
	<path class="st15" d="M73.3,79.5c0.8,0,1.6,0.2,2.2,0.6c0.9,0.6,1.5,1.4,1.7,2.5c0.2,1,0,2.1-0.6,2.9l-9.4,14.3
		c-0.3,0.4-0.6,0.8-1,1.2c-0.4,0.3-0.8,0.6-1.3,0.8l-1.1,0.5c-0.3,0.2-0.6,0.4-0.9,0.6c-0.3,0.2-0.5,0.5-0.7,0.8l-11.7,17.8
		l-19.9-13.1L42.1,91c0.3-0.5,0.5-1,0.6-1.5c0.1-0.6,0.1-1.1-0.1-1.6c-0.6-2.4-0.4-5,0-7.3c0.5-2.7,1.4-5.4,2.6-7.9l0,0l0.3-5.2
		l0-0.1c0.1-0.9,0.6-1.8,1.3-2.5c0.7-0.7,1.7-1,2.6-1l0.1,0l0.1,0c1,0.1,2,0.6,2.7,1.4c0.7,0.8,1,1.7,1,2.7l-0.4,6.2L63.5,58
		c0.6-0.9,1.4-1.5,2.5-1.7c1-0.2,2.1,0,2.9,0.6c0.9,0.6,1.5,1.4,1.7,2.5c0.2,1,0,2.1-0.6,2.9l-3.2,4.9c0.8,0,1.6,0.2,2.2,0.6
		c0.9,0.6,1.5,1.4,1.7,2.5c0.2,1,0,2.1-0.6,2.9L70,73.3c0.8,0,1.6,0.2,2.2,0.6c0.9,0.6,1.5,1.4,1.7,2.5c0.2,1,0,2.1-0.6,2.9
		L73.3,79.5L73.3,79.5z"/>
	<path class="st4" d="M64.7,91.8l-0.8-0.5c-0.1-0.1-0.2-0.2-0.2-0.3c0-0.1,0-0.3,0.1-0.4l8.1-12.3c0.3-0.5,0.4-1,0.3-1.6
		c-0.1-0.5-0.4-1-0.9-1.3c-0.5-0.3-1-0.4-1.6-0.3c-0.5,0.1-1,0.4-1.3,0.9L62,85.7c-0.1,0.2-0.4,0.3-0.7,0.1l-0.8-0.5
		c-0.1-0.1-0.2-0.2-0.2-0.3c0-0.1,0-0.3,0.1-0.4l8.2-12.5c0.3-0.5,0.4-1,0.3-1.6c-0.1-0.5-0.4-1-0.9-1.3c-0.5-0.3-1-0.4-1.6-0.3
		c-0.5,0.1-1,0.4-1.3,0.9l-6.7,10.2c-0.1,0.2-0.4,0.3-0.7,0.1L57,79.7c-0.1-0.1-0.2-0.2-0.2-0.3c0-0.1,0-0.3,0.1-0.4l11.7-17.8
		c0.3-0.5,0.4-1,0.3-1.6c-0.1-0.5-0.4-1-0.9-1.3c-0.5-0.3-1-0.4-1.6-0.3c-0.5,0.1-1,0.4-1.3,0.9L52.8,77.6c-0.1,0.2-0.3,0.3-0.6,0.2
		l-1-0.4c-0.2-0.1-0.3-0.3-0.3-0.5l0.6-9c0-0.5-0.2-1-0.5-1.4c-0.4-0.4-0.9-0.7-1.5-0.8l-0.1,0c-0.5,0-1,0.2-1.3,0.5
		c-0.4,0.3-0.6,0.8-0.7,1.4L47,72.9l-0.1,0.4c-1.1,2.1-2,4.8-2.5,7.5c-0.4,2.3-0.5,4.6,0,6.6c0.2,0.8,0.2,1.6,0.1,2.4
		c-0.1,0.8-0.4,1.5-0.9,2.2l-10.4,15.9L50.1,119l10.7-16.3c0.3-0.4,0.6-0.8,1-1.2c0.4-0.3,0.8-0.6,1.3-0.9l1.1-0.5
		c0.3-0.2,0.6-0.4,0.9-0.6c0.2-0.2,0.5-0.5,0.7-0.8l9.4-14.3c0.3-0.5,0.4-1,0.3-1.6c-0.1-0.5-0.4-1-0.9-1.3c-0.5-0.3-1-0.4-1.6-0.3
		s-1,0.4-1.3,0.9l-6.2,9.5C65.2,91.9,64.9,92,64.7,91.8L64.7,91.8z"/>
	<path class="st6" d="M64.2,18c3.6,0,6.5,2.7,6.9,6.1c0.4-3.4,3.4-6.1,6.9-6.1c-3.6,0-6.5-2.7-6.9-6.1C70.7,15.3,67.7,18,64.2,18z
		 M81.9,26.2c1.6,0,2.9,1.2,3.1,2.7c0.2-1.5,1.5-2.7,3.1-2.7c-1.6,0-2.9-1.2-3.1-2.7C84.8,25,83.5,26.2,81.9,26.2z M30.6,16.7
		c5.9,0,10.8,4.4,11.6,10.2c0.7-5.7,5.6-10.2,11.6-10.2c-5.9,0-10.8-4.4-11.6-10.2C41.5,12.2,36.6,16.7,30.6,16.7z M54.1,23.3
		c1.6,0,2.9,1.2,3.1,2.7c0.2-1.5,1.5-2.7,3.1-2.7c-1.6,0-2.9-1.2-3.1-2.7C57,22.1,55.7,23.3,54.1,23.3z"/>
	<path class="st13" d="M46.8,48.5c2.5,0,4.6,1.9,4.9,4.3c0.3-2.4,2.4-4.3,4.9-4.3c-2.5,0-4.6-1.9-4.9-4.3
		C51.4,46.7,49.3,48.5,46.8,48.5z"/>
</g>
</svg>
