<?xml version="1.0" encoding="utf-8"?>
<!-- Generator: Adobe Illustrator 27.9.0, SVG Export Plug-In . SVG Version: 6.00 Build 0)  -->
<svg version="1.1" id="Layer_1" xmlns="http://www.w3.org/2000/svg" xmlns:xlink="http://www.w3.org/1999/xlink" x="0px" y="0px"
	 viewBox="0 0 128 128" style="enable-background:new 0 0 128 128;" xml:space="preserve">
<style type="text/css">
	.st0{fill-rule:evenodd;clip-rule:evenodd;fill:none;}
	.st1{fill-rule:evenodd;clip-rule:evenodd;fill:#F1892D;}
	.st2{fill:#C5D3E2;}
	.st3{fill:#39D5FF;}
	.st4{fill-rule:evenodd;clip-rule:evenodd;fill:#F9BF3B;}
	.st5{fill-rule:evenodd;clip-rule:evenodd;fill:#F5AB35;}
	.st6{fill-rule:evenodd;clip-rule:evenodd;fill:#39D5FF;}
	.st7{fill-rule:evenodd;clip-rule:evenodd;fill:#C5D3E2;}
	.st8{fill:#FFFFFF;}
	.st9{fill-rule:evenodd;clip-rule:evenodd;fill:#29C5FF;}
	.st10{fill-rule:evenodd;clip-rule:evenodd;fill:#0057A0;}
	.st11{fill:#F1892D;}
	.st12{fill-rule:evenodd;clip-rule:evenodd;fill:#ACBAC9;}
	.st13{fill-rule:evenodd;clip-rule:evenodd;fill:#FFFFFF;}
	.st14{fill-rule:evenodd;clip-rule:evenodd;fill:#D87400;}
	.st15{fill-rule:evenodd;clip-rule:evenodd;fill:#003780;}
	.st16{fill-rule:evenodd;clip-rule:evenodd;fill:#19B5FE;}
	.st17{fill-rule:evenodd;clip-rule:evenodd;fill:#1297E0;}
	.st18{fill:#0057A0;}
	.st19{fill:#F9BF3B;}
	.st20{fill-rule:evenodd;clip-rule:evenodd;fill:#DFECFA;}
	.st21{fill-rule:evenodd;clip-rule:evenodd;fill:#0077C0;}
	.st22{fill-rule:evenodd;clip-rule:evenodd;fill:#E6EEF7;}
	.st23{fill-rule:evenodd;clip-rule:evenodd;fill:#DBC2A4;}
	.st24{fill-rule:evenodd;clip-rule:evenodd;fill:#FFE3C1;}
	.st25{fill-rule:evenodd;clip-rule:evenodd;fill:#353535;}
	.st26{fill-rule:evenodd;clip-rule:evenodd;fill:#3C4A59;}
	.st27{fill-rule:evenodd;clip-rule:evenodd;fill:#6C7A89;}
	.st28{fill-rule:evenodd;clip-rule:evenodd;fill:#4C5A69;}
</style>
<rect class="st0" width="128" height="128"/>
<g>
	<path class="st4" d="M61.2,33.4h6.3c3.2,0,6.1-1.7,6.2-4.6c0.1-7,4.8-14.4,5-22.3c-9.9-0.9-16.4,11.2-27.7,2.9l3.9,16.1
		C55.8,29.8,56.8,33.4,61.2,33.4L61.2,33.4z"/>
	<path class="st4" d="M55.3,35.7h18.4c0.6,16.3,28.7,20.2,31,55.8c0.3,4.6,3.2,16.4,4.4,22.2c0.4,1.9-0.1,3.7-1.3,5.3
		c-1.2,1.5-2.9,2.3-4.9,2.3c-23.1,0-53.9,0.2-77.6,0.3c-2.1,0-3.9-0.9-5.2-2.7c-1.2-1.7-1.5-3.8-0.8-5.8c1.6-4.6,4.8-15.4,5-19.4
		C26.3,55.4,48.7,50.9,55.3,35.7L55.3,35.7z"/>
	<path class="st5" d="M63.3,35.7h10.3c0.6,16.3,28.7,20.2,31,55.8c0.3,4.6,3.2,16.4,4.4,22.2c0.4,1.9-0.1,3.7-1.3,5.3
		c-1.2,1.5-2.9,2.3-4.9,2.3c-3.3,0-6.7,0-10.3,0v0c2,0,3.7-0.8,4.9-2.3c1.2-1.5,1.7-3.3,1.3-5.3c-1.1-5.8-4.1-17.5-4.4-22.2
		C92.1,55.9,63.9,52,63.3,35.7z"/>
	<path class="st10" d="M54.3,28.9h19.9c2.2,0,3.9,1.8,3.9,3.9l0,0c0,2.2-1.8,3.9-3.9,3.9H54.3c-2.2,0-3.9-1.8-3.9-3.9l0,0
		C50.4,30.7,52.2,28.9,54.3,28.9z"/>
	<path class="st5" d="M71.9,7.7c-0.6,7.5-4.8,14.5-4.9,21.1c0,0,0,0.1,0,0.1h6.6c0,0,0-0.1,0-0.1c0.1-7,4.8-14.4,5-22.3
		C76.2,6.3,74,6.9,71.9,7.7L71.9,7.7z"/>
	<g id="_2993492687440">
		<polygon class="st13" points="75.1,107.4 60.2,103.8 69,91.2 		"/>
		<path class="st13" d="M73.2,102.2c5-3.6,8.2-9.4,8.2-16c0-3.1-0.7-6-2-8.7c0.7,1.7,1,3.6,1,5.6c0,6.3-3.7,11.8-9,14.3L69,91.2
			l-5.4,7.8l-3.4,4.8l6.5,1.6h0l8.5,2L73.2,102.2L73.2,102.2z"/>
		<path class="st13" d="M41.8,88.3c0.6,6.1,4.1,11.8,9.8,15.1c2.7,1.6,5.6,2.4,8.5,2.6c-1.8-0.3-3.7-0.9-5.4-1.9
			c-5.5-3.2-8.3-9.1-7.9-15l6.6,1.1l-4-8.6l-2.5-5.3l-4.6,4.8h0l-6,6.3L41.8,88.3L41.8,88.3z"/>
		<path class="st13" d="M69.5,68c-5.6-2.5-12.3-2.3-18,0.9c-2.7,1.6-4.9,3.6-6.5,6.1c1.2-1.5,2.6-2.7,4.4-3.7
			c5.5-3.2,12-2.7,16.9,0.7l-4.2,5.2l9.4,0.8l5.9,0.5l-1.9-6.4l0,0L73,63.8L69.5,68L69.5,68z"/>
	</g>
</g>
</svg>
