<?xml version="1.0" encoding="utf-8"?>
<!-- Generator: Adobe Illustrator 27.9.0, SVG Export Plug-In . SVG Version: 6.00 Build 0)  -->
<svg version="1.1" id="Layer_1" xmlns="http://www.w3.org/2000/svg" xmlns:xlink="http://www.w3.org/1999/xlink" x="0px" y="0px"
	 viewBox="0 0 128 128" style="enable-background:new 0 0 128 128;" xml:space="preserve">
<style type="text/css">
	.st0{fill-rule:evenodd;clip-rule:evenodd;fill:none;}
	.st1{fill-rule:evenodd;clip-rule:evenodd;fill:#F1892D;}
	.st2{fill:#C5D3E2;}
	.st3{fill:#39D5FF;}
	.st4{fill-rule:evenodd;clip-rule:evenodd;fill:#F9BF3B;}
	.st5{fill-rule:evenodd;clip-rule:evenodd;fill:#F5AB35;}
	.st6{fill-rule:evenodd;clip-rule:evenodd;fill:#39D5FF;}
	.st7{fill-rule:evenodd;clip-rule:evenodd;fill:#C5D3E2;}
	.st8{fill:#FFFFFF;}
	.st9{fill-rule:evenodd;clip-rule:evenodd;fill:#29C5FF;}
	.st10{fill-rule:evenodd;clip-rule:evenodd;fill:#0057A0;}
	.st11{fill:#F1892D;}
	.st12{fill-rule:evenodd;clip-rule:evenodd;fill:#ACBAC9;}
	.st13{fill-rule:evenodd;clip-rule:evenodd;fill:#FFFFFF;}
	.st14{fill-rule:evenodd;clip-rule:evenodd;fill:#D87400;}
	.st15{fill-rule:evenodd;clip-rule:evenodd;fill:#003780;}
	.st16{fill-rule:evenodd;clip-rule:evenodd;fill:#19B5FE;}
	.st17{fill-rule:evenodd;clip-rule:evenodd;fill:#1297E0;}
	.st18{fill:#0057A0;}
	.st19{fill:#F9BF3B;}
	.st20{fill-rule:evenodd;clip-rule:evenodd;fill:#DFECFA;}
	.st21{fill-rule:evenodd;clip-rule:evenodd;fill:#0077C0;}
	.st22{fill-rule:evenodd;clip-rule:evenodd;fill:#E6EEF7;}
	.st23{fill-rule:evenodd;clip-rule:evenodd;fill:#DBC2A4;}
	.st24{fill-rule:evenodd;clip-rule:evenodd;fill:#FFE3C1;}
	.st25{fill-rule:evenodd;clip-rule:evenodd;fill:#353535;}
	.st26{fill-rule:evenodd;clip-rule:evenodd;fill:#3C4A59;}
	.st27{fill-rule:evenodd;clip-rule:evenodd;fill:#6C7A89;}
	.st28{fill-rule:evenodd;clip-rule:evenodd;fill:#4C5A69;}
</style>
<rect class="st0" width="128" height="128"/>
<g id="_2957227664592">
	<path class="st1" d="M64,6.5L64,6.5c2.3,0,4.1,1.8,4.1,4.1v69.6h-8.2V10.6C59.9,8.3,61.7,6.5,64,6.5L64,6.5z"/>
	<path class="st16" d="M60.3,75.5h7.3c2.5,0,4.6,2.1,4.6,4.6v7.3H55.8v-7.3C55.8,77.6,57.8,75.5,60.3,75.5L60.3,75.5z"/>
	<path class="st17" d="M33.8,97.7h60.3l5.1,19.3c0.3,1.1,0.1,2.2-0.6,3.1c-0.7,0.9-1.7,1.4-2.9,1.4H68.4H32.2
		c-1.2,0-2.2-0.5-2.9-1.4c-0.7-0.9-0.9-2-0.6-3.1L33.8,97.7L33.8,97.7z"/>
	<path class="st6" d="M39.7,82.6h48.7c3.2,0,5.8,2.6,5.8,5.8v9.3H33.8v-9.3C33.8,85.2,36.5,82.6,39.7,82.6L39.7,82.6z"/>
	<rect x="63.5" y="97.7" class="st10" width="1" height="23.8"/>
	<polygon class="st10" points="74.3,97.7 75.3,97.7 77.9,121.5 76.9,121.5 	"/>
	<polygon class="st10" points="84.7,97.7 85.7,97.7 90.4,121.5 89.4,121.5 	"/>
	<polygon class="st10" points="53.7,97.7 52.7,97.7 50.1,121.5 51.1,121.5 	"/>
	<polygon class="st10" points="43.3,97.7 42.3,97.7 37.6,121.5 38.6,121.5 	"/>
</g>
</svg>
