<?xml version="1.0" encoding="utf-8"?>
<!-- Generator: Adobe Illustrator 27.9.0, SVG Export Plug-In . SVG Version: 6.00 Build 0)  -->
<svg version="1.1" id="Layer_1" xmlns="http://www.w3.org/2000/svg" xmlns:xlink="http://www.w3.org/1999/xlink" x="0px" y="0px"
	 viewBox="0 0 128 128" style="enable-background:new 0 0 128 128;" xml:space="preserve">
<style type="text/css">
	.st0{fill-rule:evenodd;clip-rule:evenodd;fill:none;}
	.st1{fill-rule:evenodd;clip-rule:evenodd;fill:#F1892D;}
	.st2{fill:#C5D3E2;}
	.st3{fill:#39D5FF;}
	.st4{fill-rule:evenodd;clip-rule:evenodd;fill:#F9BF3B;}
	.st5{fill-rule:evenodd;clip-rule:evenodd;fill:#F5AB35;}
	.st6{fill-rule:evenodd;clip-rule:evenodd;fill:#39D5FF;}
	.st7{fill-rule:evenodd;clip-rule:evenodd;fill:#C5D3E2;}
	.st8{fill:#FFFFFF;}
	.st9{fill-rule:evenodd;clip-rule:evenodd;fill:#29C5FF;}
	.st10{fill-rule:evenodd;clip-rule:evenodd;fill:#0057A0;}
	.st11{fill:#F1892D;}
	.st12{fill-rule:evenodd;clip-rule:evenodd;fill:#ACBAC9;}
	.st13{fill-rule:evenodd;clip-rule:evenodd;fill:#FFFFFF;}
	.st14{fill-rule:evenodd;clip-rule:evenodd;fill:#D87400;}
	.st15{fill-rule:evenodd;clip-rule:evenodd;fill:#003780;}
	.st16{fill-rule:evenodd;clip-rule:evenodd;fill:#19B5FE;}
	.st17{fill-rule:evenodd;clip-rule:evenodd;fill:#1297E0;}
	.st18{fill:#0057A0;}
	.st19{fill:#F9BF3B;}
	.st20{fill-rule:evenodd;clip-rule:evenodd;fill:#DFECFA;}
	.st21{fill-rule:evenodd;clip-rule:evenodd;fill:#0077C0;}
	.st22{fill-rule:evenodd;clip-rule:evenodd;fill:#E6EEF7;}
	.st23{fill-rule:evenodd;clip-rule:evenodd;fill:#DBC2A4;}
	.st24{fill-rule:evenodd;clip-rule:evenodd;fill:#FFE3C1;}
	.st25{fill-rule:evenodd;clip-rule:evenodd;fill:#353535;}
	.st26{fill-rule:evenodd;clip-rule:evenodd;fill:#3C4A59;}
	.st27{fill-rule:evenodd;clip-rule:evenodd;fill:#6C7A89;}
	.st28{fill-rule:evenodd;clip-rule:evenodd;fill:#4C5A69;}
</style>
<rect class="st0" width="128" height="128"/>
<g id="_2957227649136">
	<path class="st9" d="M35.6,60.7h56.9c2.4,0,4.3,2,4.3,4.3v8.6c0,2.4-2,4.3-4.3,4.3H35.6c-2.4,0-4.3-2-4.3-4.3V65
		C31.2,62.6,33.2,60.7,35.6,60.7L35.6,60.7z"/>
	<path class="st6" d="M35.3,61.8h57.4c1.6,0,3,1.3,3,3v9.1c0,1.6-1.3,3-3,3H35.3c-1.6,0-3-1.3-3-3v-9.1
		C32.3,63.1,33.7,61.8,35.3,61.8z"/>
	<path class="st9" d="M78.1,61.8h14.4c1.8,0,3.2,1.4,3.2,3.2v8.6c0,1.8-1.4,3.2-3.2,3.2H68.3C75.6,74.5,78.8,69.5,78.1,61.8z"/>
	<path class="st4" d="M92.9,77.9l5.5,16.5H29.6l5.5-16.5c0.1,0,0.3,0,0.4,0h56.9C92.6,77.9,92.7,77.9,92.9,77.9z"/>
	<path class="st5" d="M92.9,77.9l5.5,16.5H56.9c12.8-0.2,18.7-5.6,17.6-16.4h17.9C92.6,77.9,92.7,77.9,92.9,77.9L92.9,77.9z"/>
	<path class="st18" d="M49.5,48.7h29.1c2,0,3.8,0.6,5.3,1.7c1.5,1.1,2.7,2.6,3.3,4.5l2,5.8h-4.2l-1.5-4.5c-0.4-1.1-1-1.9-1.8-2.5
		c-0.8-0.6-1.8-0.9-3-0.9H49.5c-1.1,0-2.1,0.3-3,0.9c-0.8,0.6-1.5,1.5-1.8,2.5l-1.5,4.5h-4.2l2-5.8c0.6-1.9,1.8-3.4,3.3-4.5
		C45.6,49.3,47.5,48.7,49.5,48.7L49.5,48.7z"/>
	<polygon class="st13" points="39.4,95.5 34.4,95.5 39.4,87 	"/>
	<path class="st16" d="M43,68.2H85c0.6,0,1.1,0.5,1.1,1.1l0,0c0,0.6-0.5,1.1-1.1,1.1H43c-0.6,0-1.1-0.5-1.1-1.1l0,0
		C41.8,68.7,42.3,68.2,43,68.2z"/>
	<path class="st17" d="M77.6,68.2H85c0.6,0,1.1,0.5,1.1,1.1c0,0.6-0.5,1.1-1.1,1.1h-8.3C77.1,69.7,77.4,69,77.6,68.2L77.6,68.2z"/>
	<path class="st10" d="M9.4,97h109.1c1.6,0,2.9,1.3,2.9,2.9v0c0,1.6-1.3,2.9-2.9,2.9H9.4c-1.6,0-2.9-1.3-2.9-2.9v0
		C6.5,98.3,7.8,97,9.4,97z"/>
	<path class="st4" d="M99.6,67.5c4.1,0.5,7.2,4,7.2,8.2c0-4.2,3.1-7.7,7.2-8.2c-4.1-0.5-7.2-4-7.2-8.2
		C106.8,63.5,103.7,66.9,99.6,67.5z"/>
	<path class="st4" d="M29.5,42.3c2.6,0.3,4.6,2.6,4.6,5.3c0-2.7,2-4.9,4.6-5.3c-2.6-0.3-4.6-2.6-4.6-5.3
		C34.2,39.7,32.1,41.9,29.5,42.3z"/>
	<path class="st4" d="M89.2,51.8c2.6,0.3,4.6,2.6,4.6,5.3c0-2.7,2-4.9,4.6-5.3c-2.6-0.3-4.6-2.6-4.6-5.3
		C93.8,49.2,91.8,51.4,89.2,51.8z"/>
	<path class="st4" d="M56.2,33.4c4.1,0.5,7.2,4,7.2,8.2c0-4.2,3.1-7.7,7.2-8.2c-4.1-0.5-7.2-4-7.2-8.2
		C63.5,29.4,60.3,32.8,56.2,33.4z"/>
	<path class="st4" d="M14.8,70.7c3.8,0.5,6.8,3.8,6.8,7.7c0-4,3-7.2,6.8-7.7c-3.8-0.5-6.8-3.8-6.8-7.7C21.6,67,18.7,70.2,14.8,70.7z
		"/>
</g>
</svg>
