<?xml version="1.0" encoding="utf-8"?>
<!-- Generator: Adobe Illustrator 27.9.0, SVG Export Plug-In . SVG Version: 6.00 Build 0)  -->
<svg version="1.1" id="Layer_1" xmlns="http://www.w3.org/2000/svg" xmlns:xlink="http://www.w3.org/1999/xlink" x="0px" y="0px"
	 viewBox="0 0 128 128" style="enable-background:new 0 0 128 128;" xml:space="preserve">
<style type="text/css">
	.st0{fill-rule:evenodd;clip-rule:evenodd;fill:none;}
	.st1{fill-rule:evenodd;clip-rule:evenodd;fill:#F1892D;}
	.st2{fill:#C5D3E2;}
	.st3{fill:#39D5FF;}
	.st4{fill-rule:evenodd;clip-rule:evenodd;fill:#F9BF3B;}
	.st5{fill-rule:evenodd;clip-rule:evenodd;fill:#F5AB35;}
	.st6{fill-rule:evenodd;clip-rule:evenodd;fill:#39D5FF;}
	.st7{fill-rule:evenodd;clip-rule:evenodd;fill:#C5D3E2;}
	.st8{fill:#FFFFFF;}
	.st9{fill-rule:evenodd;clip-rule:evenodd;fill:#29C5FF;}
	.st10{fill-rule:evenodd;clip-rule:evenodd;fill:#0057A0;}
	.st11{fill:#F1892D;}
	.st12{fill-rule:evenodd;clip-rule:evenodd;fill:#ACBAC9;}
	.st13{fill-rule:evenodd;clip-rule:evenodd;fill:#FFFFFF;}
	.st14{fill-rule:evenodd;clip-rule:evenodd;fill:#D87400;}
	.st15{fill-rule:evenodd;clip-rule:evenodd;fill:#003780;}
	.st16{fill-rule:evenodd;clip-rule:evenodd;fill:#19B5FE;}
	.st17{fill-rule:evenodd;clip-rule:evenodd;fill:#1297E0;}
	.st18{fill:#0057A0;}
	.st19{fill:#F9BF3B;}
	.st20{fill-rule:evenodd;clip-rule:evenodd;fill:#DFECFA;}
	.st21{fill-rule:evenodd;clip-rule:evenodd;fill:#0077C0;}
	.st22{fill-rule:evenodd;clip-rule:evenodd;fill:#E6EEF7;}
	.st23{fill-rule:evenodd;clip-rule:evenodd;fill:#DBC2A4;}
	.st24{fill-rule:evenodd;clip-rule:evenodd;fill:#FFE3C1;}
	.st25{fill-rule:evenodd;clip-rule:evenodd;fill:#353535;}
	.st26{fill-rule:evenodd;clip-rule:evenodd;fill:#3C4A59;}
	.st27{fill-rule:evenodd;clip-rule:evenodd;fill:#6C7A89;}
	.st28{fill-rule:evenodd;clip-rule:evenodd;fill:#4C5A69;}
</style>
<rect class="st0" width="128" height="128"/>
<g id="_2957553832816">
	<path class="st9" d="M105.3,41.2H22.7l4.7,68.3c0.2,2.7,1.4,5.1,3.3,6.8c1.8,1.7,4.3,2.8,7.1,2.8h52.6c2.7,0,5.2-1,7.1-2.8
		c1.8-1.7,3.1-4.1,3.3-6.8L105.3,41.2L105.3,41.2z"/>
	<path class="st18" d="M107.7,42.7l-4.5,65.9c-0.3,3.7-1.9,6.9-4.4,9.2c-2.5,2.3-5.8,3.7-9.5,3.7H38.7c-3.7,0-7-1.4-9.5-3.7
		c-2.5-2.3-4.1-5.6-4.4-9.2l-4.5-65.9h4l4.5,65.6c0.2,2.6,1.3,4.9,3.1,6.6c1.8,1.7,4.2,2.7,6.8,2.7h50.6c2.6,0,5-1,6.8-2.7
		c1.8-1.7,2.9-4,3.1-6.6l4.5-65.6L107.7,42.7L107.7,42.7z"/>
	<path class="st18" d="M44.1,14.5l1.1-4.4c0.3-1.1,0.8-1.9,1.6-2.6h0c0.8-0.6,1.8-1,2.9-1h28.5c1.1,0,2.1,0.4,2.9,1h0
		c0.8,0.6,1.4,1.5,1.6,2.6l1.1,4.4h-4.1L78.9,11c0-0.2-0.1-0.3-0.2-0.4c-0.1-0.1-0.3-0.1-0.4-0.1H49.8c-0.2,0-0.3,0-0.4,0.1
		c-0.1,0.1-0.2,0.2-0.2,0.4l-0.9,3.5L44.1,14.5L44.1,14.5z"/>
	<path class="st18" d="M29.2,14.5h9.9h5h4.1h31.5h4.1h5.1h9.8c2,0,3.8,0.7,5.3,1.8c1.5,1.1,2.5,2.8,3,4.7l5.3,21.7h-4.7h-4H24.3h-4
		h-4.7L20.9,21c0.5-1.9,1.6-3.5,3-4.7C25.4,15.1,27.2,14.5,29.2,14.5L29.2,14.5z"/>
	<path class="st18" d="M89.5,59.2l-3.2,46.3c-0.1,0.9-0.8,1.5-1.7,1.5l-0.8-0.1c-0.4,0-0.8-0.2-1.1-0.5c-0.3-0.3-0.4-0.7-0.4-1.2
		L85.6,59c0.1-0.9,0.8-1.5,1.7-1.5l0.8,0.1c0.4,0,0.8,0.2,1.1,0.5C89.4,58.4,89.6,58.8,89.5,59.2z"/>
	<path class="st18" d="M42.4,59l3.2,46.3c0,0.4-0.1,0.8-0.4,1.2c-0.3,0.3-0.7,0.5-1.1,0.5l-0.8,0.1c-0.9,0.1-1.6-0.6-1.7-1.5
		l-3.2-46.3c0-0.4,0.1-0.8,0.4-1.2c0.3-0.3,0.7-0.5,1.1-0.5l0.8-0.1C41.6,57.4,42.4,58.1,42.4,59L42.4,59z"/>
	<path class="st18" d="M62,105.4V59.1c0-0.9,0.7-1.6,1.6-1.6h0.8c0.9,0,1.6,0.7,1.6,1.6v46.3c0,0.9-0.7,1.6-1.6,1.6h-0.8
		C62.7,107,62,106.3,62,105.4z"/>
	<circle class="st9" cx="64" cy="44.1" r="23.6"/>
	<circle class="st13" cx="64" cy="44.1" r="20.8"/>
	<g>
		<path class="st9" d="M66.8,48.3l0.2-17.4c0-0.7-0.2-1.3-0.7-1.7c-0.5-0.5-1.1-0.7-1.7-0.7h-1c-0.7,0-1.3,0.2-1.7,0.7
			c-0.5,0.5-0.7,1.1-0.7,1.7l0.2,17.4c0,1.3,1.1,2.4,2.4,2.4h0.7C65.7,50.7,66.8,49.7,66.8,48.3L66.8,48.3z"/>
		<path class="st9" d="M66.3,54.5c-0.6-0.6-1.4-0.9-2.3-0.9c-0.9,0-1.7,0.3-2.3,0.9c-0.6,0.6-0.9,1.3-0.9,2.2c0,0.9,0.3,1.6,0.9,2.2
			c0.6,0.6,1.4,0.9,2.3,0.9c0.9,0,1.7-0.3,2.3-0.9c0.6-0.6,0.9-1.3,0.9-2.2C67.2,55.8,66.9,55.1,66.3,54.5z"/>
	</g>
</g>
</svg>
