<?xml version="1.0" encoding="utf-8"?>
<!-- Generator: Adobe Illustrator 27.9.0, SVG Export Plug-In . SVG Version: 6.00 Build 0)  -->
<svg version="1.1" id="Layer_1" xmlns="http://www.w3.org/2000/svg" xmlns:xlink="http://www.w3.org/1999/xlink" x="0px" y="0px"
	 viewBox="0 0 128 128" style="enable-background:new 0 0 128 128;" xml:space="preserve">
<style type="text/css">
	.st0{fill-rule:evenodd;clip-rule:evenodd;fill:none;}
	.st1{fill-rule:evenodd;clip-rule:evenodd;fill:#F1892D;}
	.st2{fill:#C5D3E2;}
	.st3{fill:#39D5FF;}
	.st4{fill-rule:evenodd;clip-rule:evenodd;fill:#F9BF3B;}
	.st5{fill-rule:evenodd;clip-rule:evenodd;fill:#F5AB35;}
	.st6{fill-rule:evenodd;clip-rule:evenodd;fill:#39D5FF;}
	.st7{fill-rule:evenodd;clip-rule:evenodd;fill:#C5D3E2;}
	.st8{fill:#FFFFFF;}
	.st9{fill-rule:evenodd;clip-rule:evenodd;fill:#29C5FF;}
	.st10{fill-rule:evenodd;clip-rule:evenodd;fill:#0057A0;}
	.st11{fill:#F1892D;}
	.st12{fill-rule:evenodd;clip-rule:evenodd;fill:#ACBAC9;}
	.st13{fill-rule:evenodd;clip-rule:evenodd;fill:#FFFFFF;}
	.st14{fill-rule:evenodd;clip-rule:evenodd;fill:#D87400;}
	.st15{fill-rule:evenodd;clip-rule:evenodd;fill:#003780;}
	.st16{fill-rule:evenodd;clip-rule:evenodd;fill:#19B5FE;}
	.st17{fill-rule:evenodd;clip-rule:evenodd;fill:#1297E0;}
	.st18{fill:#0057A0;}
	.st19{fill:#F9BF3B;}
	.st20{fill-rule:evenodd;clip-rule:evenodd;fill:#DFECFA;}
	.st21{fill-rule:evenodd;clip-rule:evenodd;fill:#0077C0;}
	.st22{fill-rule:evenodd;clip-rule:evenodd;fill:#E6EEF7;}
	.st23{fill-rule:evenodd;clip-rule:evenodd;fill:#DBC2A4;}
	.st24{fill-rule:evenodd;clip-rule:evenodd;fill:#FFE3C1;}
	.st25{fill-rule:evenodd;clip-rule:evenodd;fill:#353535;}
	.st26{fill-rule:evenodd;clip-rule:evenodd;fill:#3C4A59;}
	.st27{fill-rule:evenodd;clip-rule:evenodd;fill:#6C7A89;}
	.st28{fill-rule:evenodd;clip-rule:evenodd;fill:#4C5A69;}
</style>
<rect class="st0" width="128" height="128"/>
<g>
	<path class="st1" d="M11.6,21.4h9.6v11.1h-9.6c-2.8,0-5.1-2.3-5.1-5.1v-0.9C6.5,23.7,8.8,21.4,11.6,21.4z"/>
	<path class="st1" d="M116.4,21.4h-9.6v11.1h9.6c2.8,0,5.1-2.3,5.1-5.1v-0.9C121.5,23.7,119.2,21.4,116.4,21.4z"/>
	<path class="st6" d="M17,18.5h94l-6.5,91.3c-0.4,6.1-5.5,10.9-11.7,10.9H35.2c-6.1,0-11.2-4.7-11.7-10.9L17,18.5L17,18.5z"/>
	<path class="st9" d="M76.4,18.5H111l-6.5,91.3c-0.4,6.1-5.5,10.9-11.7,10.9H40.2C68.8,120.6,75.7,89.4,76.4,18.5L76.4,18.5z"/>
	<path class="st10" d="M15.7,7.4h96.6c2.9,0,5.3,2.5,5.3,5.6v0c0,3.1-2.4,5.6-5.3,5.6H15.7c-2.9,0-5.3-2.5-5.3-5.6v0
		C10.4,9.9,12.8,7.4,15.7,7.4z"/>
	<path class="st11" d="M119.7,26.7l0,0.7c0,15.4-6.2,29.3-16.3,39.4S79.4,83,64,83C48.8,83,34.9,76.9,24.9,67
		C14.8,57,8.5,43.3,8.3,28l4.2,0c0.2,14.1,6,26.8,15.3,36c9.3,9.2,22.1,14.9,36.2,14.9c14.2,0,27.1-5.8,36.4-15.1
		c9.3-9.3,15.1-22.2,15.1-36.4l0-0.6L119.7,26.7L119.7,26.7z"/>
	<path class="st11" d="M76.5,83.8c-1.8,0.4-3.5,0.7-5.3,0.9c-2.4,0.3-4.7,0.4-7.1,0.4c-2.4,0-4.8-0.1-7.1-0.4
		c-1.8-0.2-3.6-0.5-5.3-0.9c-0.5-0.1-0.8-0.4-1.1-0.8c-0.2-0.4-0.3-0.8-0.2-1.3l1.2-4.9c0.2-0.9,1.1-1.4,2-1.2
		c1.4,0.3,2.9,0.6,4.4,0.7c2,0.2,4,0.4,6.1,0.4c2.1,0,4.1-0.1,6.1-0.4c1.5-0.2,3-0.4,4.4-0.7c0.9-0.2,1.8,0.4,2,1.2l1.2,4.9
		c0.1,0.5,0,0.9-0.2,1.3C77.3,83.4,76.9,83.7,76.5,83.8L76.5,83.8z"/>
</g>
</svg>
