<?xml version="1.0" encoding="utf-8"?>
<!-- Generator: Adobe Illustrator 27.9.0, SVG Export Plug-In . SVG Version: 6.00 Build 0)  -->
<svg version="1.1" id="Layer_1" xmlns="http://www.w3.org/2000/svg" xmlns:xlink="http://www.w3.org/1999/xlink" x="0px" y="0px"
	 viewBox="0 0 128 128" style="enable-background:new 0 0 128 128;" xml:space="preserve">
<style type="text/css">
	.st0{fill-rule:evenodd;clip-rule:evenodd;fill:none;}
	.st1{fill-rule:evenodd;clip-rule:evenodd;fill:#F1892D;}
	.st2{fill:#C5D3E2;}
	.st3{fill:#39D5FF;}
	.st4{fill-rule:evenodd;clip-rule:evenodd;fill:#F9BF3B;}
	.st5{fill-rule:evenodd;clip-rule:evenodd;fill:#F5AB35;}
	.st6{fill-rule:evenodd;clip-rule:evenodd;fill:#39D5FF;}
	.st7{fill-rule:evenodd;clip-rule:evenodd;fill:#C5D3E2;}
	.st8{fill:#FFFFFF;}
	.st9{fill-rule:evenodd;clip-rule:evenodd;fill:#29C5FF;}
	.st10{fill-rule:evenodd;clip-rule:evenodd;fill:#0057A0;}
	.st11{fill:#F1892D;}
	.st12{fill-rule:evenodd;clip-rule:evenodd;fill:#ACBAC9;}
	.st13{fill-rule:evenodd;clip-rule:evenodd;fill:#FFFFFF;}
	.st14{fill-rule:evenodd;clip-rule:evenodd;fill:#D87400;}
	.st15{fill-rule:evenodd;clip-rule:evenodd;fill:#003780;}
	.st16{fill-rule:evenodd;clip-rule:evenodd;fill:#19B5FE;}
	.st17{fill-rule:evenodd;clip-rule:evenodd;fill:#1297E0;}
	.st18{fill:#0057A0;}
	.st19{fill:#F9BF3B;}
	.st20{fill-rule:evenodd;clip-rule:evenodd;fill:#DFECFA;}
	.st21{fill-rule:evenodd;clip-rule:evenodd;fill:#0077C0;}
	.st22{fill-rule:evenodd;clip-rule:evenodd;fill:#E6EEF7;}
	.st23{fill-rule:evenodd;clip-rule:evenodd;fill:#DBC2A4;}
	.st24{fill-rule:evenodd;clip-rule:evenodd;fill:#FFE3C1;}
	.st25{fill-rule:evenodd;clip-rule:evenodd;fill:#353535;}
	.st26{fill-rule:evenodd;clip-rule:evenodd;fill:#3C4A59;}
	.st27{fill-rule:evenodd;clip-rule:evenodd;fill:#6C7A89;}
	.st28{fill-rule:evenodd;clip-rule:evenodd;fill:#4C5A69;}
</style>
<rect class="st0" width="128" height="128"/>
<g>
	<g id="_2957553842224">
		<circle class="st10" cx="64" cy="64" r="57.5"/>
		<circle class="st13" cx="64" cy="64" r="52.1"/>
		<g>
			<path class="st23" d="M82,43.1c3.1,0,4.9,1.1,4.9,3.6c0,2.6-1.8,6.4-4.9,6.4c-0.6,0-1.1-0.1-1.6-0.3c0.1-0.6,0.1-1.1,0.1-1.7
				v-7.9C81,43.2,81.5,43.1,82,43.1L82,43.1z"/>
			<path class="st23" d="M45.1,43.1c-3.1,0-4.9,1.1-4.9,3.6c0,2.6,1.9,6.4,4.9,6.4c0.6,0,1.1-0.1,1.6-0.3c-0.1-0.6-0.1-1.1-0.1-1.7
				v-7.9C46.1,43.2,45.6,43.1,45.1,43.1z"/>
			<path class="st4" d="M81.1,46.1V35.9c0-9.6-7.9-17.5-17.5-17.5h0c-9.6,0-17.5,7.9-17.5,17.5v10.2H81.1L81.1,46.1z"/>
			<polygon class="st5" points="64,18.4 63.5,18.4 63.5,18.4 63,18.4 63,31.5 64,31.5 			"/>
			<path class="st10" d="M53.2,75.4h21.7c16.1,0,29.4,12.6,30.6,28.4C95,114.7,80.3,121.5,64,121.5c-16.3,0-31-6.8-41.5-17.7
				C23.7,88,37.1,75.4,53.2,75.4L53.2,75.4z"/>
			<path class="st4" d="M40.3,78.3c2.1-1,4.4-1.7,6.7-2.2v24.3c0,1.4,1.1,2.5,2.5,2.5h28.9c1.4,0,2.5-1.1,2.5-2.5V76.1
				c2.4,0.5,4.6,1.2,6.7,2.2v28.2v4.2v5.7c-7.2,3.3-15.3,5.1-23.7,5.1c-8.5,0-16.5-1.8-23.7-5.1v-5.7v-4.2V78.3L40.3,78.3z"/>
			<path class="st5" d="M47,118.9v-7.1c0-0.6,0.5-1.1,1.1-1.1h31.8c0.6,0,1.1,0.5,1.1,1.1v7.1c-5.4,1.7-11.1,2.6-17,2.6
				C58.1,121.5,52.4,120.6,47,118.9z"/>
			<polygon class="st24" points="71.3,75.4 71.3,63 56.7,63 56.7,75.4 64,87.9 			"/>
			<path class="st23" d="M71.3,69v-6H56.7v6.5c2.1,0.9,4.4,1.4,6.8,1.4C66.3,70.8,68.9,70.2,71.3,69L71.3,69z"/>
			<path class="st24" d="M81.1,35.9l0,16c0,9.6-7.9,17.5-17.5,17.5C53.9,69.5,46,61.6,46,52l0-16C46.6,36,74.5,35.5,81.1,35.9
				L81.1,35.9z"/>
			<path class="st5" d="M63.5,39.6c-4.5,0.1-5.5,2.7-10.2,2.8c-3.3,0.1-6-1.8-7.3-6.6c10.8-7.4,24.2-7.4,35,0
				c-1.3,4.8-4.1,6.6-7.3,6.6C69.1,42.4,68,39.8,63.5,39.6L63.5,39.6z"/>
			<path class="st4" d="M64,87.9l5.6,3.6l6.9-16c-0.5,0-1.1,0-1.6,0h-3.5C71.3,75.4,64,87.9,64,87.9z"/>
			<path class="st4" d="M64,87.9l-5.6,3.6l-6.9-16c0.5,0,1.1,0,1.6,0h3.5C56.7,75.4,64,87.9,64,87.9z"/>
			<path class="st25" d="M66.8,57.1v1.1c0,1.8-1.5,3.3-3.3,3.3c-1.8,0-3.3-1.5-3.3-3.3v-1.1H66.8L66.8,57.1z M55.7,44.7
				c1,0,1.8,0.8,1.8,1.8c0,1-0.8,1.8-1.8,1.8c-1,0-1.8-0.8-1.8-1.8C53.8,45.5,54.7,44.7,55.7,44.7z M71.4,44.7c1,0,1.8,0.8,1.8,1.8
				c0,1-0.8,1.8-1.8,1.8c-1,0-1.8-0.8-1.8-1.8C69.6,45.5,70.4,44.7,71.4,44.7z"/>
		</g>
	</g>
	<g id="_2957553846064">
		<circle class="st4" cx="106.3" cy="30" r="13.8"/>
		<path class="st8" d="M99.7,28.8l3.9,3.9l9.3-9.2c0.6-0.5,1.4-0.5,2,0l0.2,0.2c0.5,0.6,0.5,1.4,0,2L103.6,37l-6-6.1
			c-0.5-0.5-0.5-1.4,0-2l0.2-0.2C98.3,28.2,99.2,28.2,99.7,28.8L99.7,28.8z"/>
	</g>
</g>
</svg>
