<?xml version="1.0" encoding="utf-8"?>
<!-- Generator: Adobe Illustrator 27.9.0, SVG Export Plug-In . SVG Version: 6.00 Build 0)  -->
<svg version="1.1" id="Layer_1" xmlns="http://www.w3.org/2000/svg" xmlns:xlink="http://www.w3.org/1999/xlink" x="0px" y="0px"
	 viewBox="0 0 128 128" style="enable-background:new 0 0 128 128;" xml:space="preserve">
<style type="text/css">
	.st0{fill-rule:evenodd;clip-rule:evenodd;fill:none;}
	.st1{fill-rule:evenodd;clip-rule:evenodd;fill:#F1892D;}
	.st2{fill:#C5D3E2;}
	.st3{fill:#39D5FF;}
	.st4{fill-rule:evenodd;clip-rule:evenodd;fill:#F9BF3B;}
	.st5{fill-rule:evenodd;clip-rule:evenodd;fill:#F5AB35;}
	.st6{fill-rule:evenodd;clip-rule:evenodd;fill:#39D5FF;}
	.st7{fill-rule:evenodd;clip-rule:evenodd;fill:#C5D3E2;}
	.st8{fill:#FFFFFF;}
	.st9{fill-rule:evenodd;clip-rule:evenodd;fill:#29C5FF;}
	.st10{fill-rule:evenodd;clip-rule:evenodd;fill:#0057A0;}
	.st11{fill:#F1892D;}
	.st12{fill-rule:evenodd;clip-rule:evenodd;fill:#ACBAC9;}
	.st13{fill-rule:evenodd;clip-rule:evenodd;fill:#FFFFFF;}
	.st14{fill-rule:evenodd;clip-rule:evenodd;fill:#D87400;}
	.st15{fill-rule:evenodd;clip-rule:evenodd;fill:#003780;}
	.st16{fill-rule:evenodd;clip-rule:evenodd;fill:#19B5FE;}
	.st17{fill-rule:evenodd;clip-rule:evenodd;fill:#1297E0;}
	.st18{fill:#0057A0;}
	.st19{fill:#F9BF3B;}
	.st20{fill-rule:evenodd;clip-rule:evenodd;fill:#DFECFA;}
	.st21{fill-rule:evenodd;clip-rule:evenodd;fill:#0077C0;}
	.st22{fill-rule:evenodd;clip-rule:evenodd;fill:#E6EEF7;}
	.st23{fill-rule:evenodd;clip-rule:evenodd;fill:#DBC2A4;}
	.st24{fill-rule:evenodd;clip-rule:evenodd;fill:#FFE3C1;}
	.st25{fill-rule:evenodd;clip-rule:evenodd;fill:#353535;}
	.st26{fill-rule:evenodd;clip-rule:evenodd;fill:#3C4A59;}
	.st27{fill-rule:evenodd;clip-rule:evenodd;fill:#6C7A89;}
	.st28{fill-rule:evenodd;clip-rule:evenodd;fill:#4C5A69;}
</style>
<rect class="st0" width="128" height="128"/>
<g id="_2957627470656">
	<path class="st1" d="M26.2,120.1l-0.5-0.4c-1.8-1.3-2.9-3.1-3.1-5.3c-0.2-2.2,0.4-4.2,2-5.9l22.4-24.1l5.7,4.1l-15.5,29
		c-1.1,2-2.7,3.3-4.9,3.8C30.1,121.8,28,121.4,26.2,120.1z"/>
	<circle class="st13" cx="30.7" cy="113.2" r="4"/>
	<path class="st16" d="M51.1,91.6l-6.6-4.7c-1.4-1-1.7-2.9-0.7-4.3l2.8-4l11.5,8.2l-2.8,4C54.4,92.2,52.5,92.5,51.1,91.6z"/>
	<path class="st6" d="M72.1,99.2L30.5,69.5c-1.7-1.2-2.1-3.7-0.9-5.4l3.6-5l48,34.2l-3.6,5C76.3,100,73.8,100.4,72.1,99.2L72.1,99.2
		z"/>
	<polygon class="st10" points="81.1,93.2 33.2,59 34.8,52.2 87.1,89.5 	"/>
	<path class="st7" d="M74.9,76.9l-10.2-7.3l-3.9-2.8l-10.2-7.3l-3.9-2.8l-2.1-1.5l-8.1-5.7L65.5,9.1c2-2.8,5.9-3.5,8.7-1.5v0
		c2.8,2,3.5,5.9,1.5,8.7L56.1,43.8c-0.8,1.1-0.5,2.5,0.6,3.3c1.1,0.8,2.5,0.5,3.3-0.6l10.8-15.2c2-2.8,5.9-3.5,8.7-1.5h0
		c2.8,2,3.5,5.9,1.5,8.7l-5,7c-0.8,1.1-0.5,2.5,0.6,3.3c1.1,0.8,2.5,0.5,3.3-0.6l8-11.3c2-2.8,5.9-3.5,8.7-1.5h0
		c2.8,2,3.5,5.9,1.5,8.7l-13.5,19c-0.8,1.1-0.5,2.5,0.6,3.3c1.1,0.8,2.5,0.5,3.3-0.6l5.7-8.1c2-2.8,5.9-3.5,8.7-1.5l0,0
		c2.8,2,3.5,5.9,1.5,8.7L88.9,86.9l-10.2-7.3L74.9,76.9L74.9,76.9z"/>
</g>
</svg>
