<?xml version="1.0" encoding="utf-8"?>
<!-- Generator: Adobe Illustrator 27.9.0, SVG Export Plug-In . SVG Version: 6.00 Build 0)  -->
<svg version="1.1" id="Layer_1" xmlns="http://www.w3.org/2000/svg" xmlns:xlink="http://www.w3.org/1999/xlink" x="0px" y="0px"
	 viewBox="0 0 128 128" style="enable-background:new 0 0 128 128;" xml:space="preserve">
<style type="text/css">
	.st0{fill-rule:evenodd;clip-rule:evenodd;fill:none;}
	.st1{fill-rule:evenodd;clip-rule:evenodd;fill:#F1892D;}
	.st2{fill:#C5D3E2;}
	.st3{fill:#39D5FF;}
	.st4{fill-rule:evenodd;clip-rule:evenodd;fill:#F9BF3B;}
	.st5{fill-rule:evenodd;clip-rule:evenodd;fill:#F5AB35;}
	.st6{fill-rule:evenodd;clip-rule:evenodd;fill:#39D5FF;}
	.st7{fill-rule:evenodd;clip-rule:evenodd;fill:#C5D3E2;}
	.st8{fill:#FFFFFF;}
	.st9{fill-rule:evenodd;clip-rule:evenodd;fill:#29C5FF;}
	.st10{fill-rule:evenodd;clip-rule:evenodd;fill:#0057A0;}
	.st11{fill:#F1892D;}
	.st12{fill-rule:evenodd;clip-rule:evenodd;fill:#ACBAC9;}
	.st13{fill-rule:evenodd;clip-rule:evenodd;fill:#FFFFFF;}
	.st14{fill-rule:evenodd;clip-rule:evenodd;fill:#D87400;}
	.st15{fill-rule:evenodd;clip-rule:evenodd;fill:#003780;}
	.st16{fill-rule:evenodd;clip-rule:evenodd;fill:#19B5FE;}
	.st17{fill-rule:evenodd;clip-rule:evenodd;fill:#1297E0;}
	.st18{fill:#0057A0;}
	.st19{fill:#F9BF3B;}
	.st20{fill-rule:evenodd;clip-rule:evenodd;fill:#DFECFA;}
	.st21{fill-rule:evenodd;clip-rule:evenodd;fill:#0077C0;}
	.st22{fill-rule:evenodd;clip-rule:evenodd;fill:#E6EEF7;}
	.st23{fill-rule:evenodd;clip-rule:evenodd;fill:#DBC2A4;}
	.st24{fill-rule:evenodd;clip-rule:evenodd;fill:#FFE3C1;}
	.st25{fill-rule:evenodd;clip-rule:evenodd;fill:#353535;}
	.st26{fill-rule:evenodd;clip-rule:evenodd;fill:#3C4A59;}
	.st27{fill-rule:evenodd;clip-rule:evenodd;fill:#6C7A89;}
	.st28{fill-rule:evenodd;clip-rule:evenodd;fill:#4C5A69;}
</style>
<rect class="st0" width="128" height="128"/>
<g id="_2957627474784">
	<path class="st18" d="M85.7,43.2v-9.3c0-2.8-0.7-5.4-2.1-7.6c-1.4-2.2-3.4-4-5.9-5.2l-15.6-7.6c-2.3-1.1-4.7-1.6-7-1.5
		c-2.3,0.1-4.6,0.9-6.8,2.2c-2.2,1.3-3.8,3.1-5,5.1c-1.1,2-1.7,4.4-1.7,6.9v19.1h-5.5V26.3c0-3.5,0.8-6.7,2.4-9.6
		c1.6-2.9,3.9-5.3,6.8-7.1c2.9-1.8,6.1-2.9,9.4-3c3.3-0.2,6.5,0.5,9.7,2l15.6,7.6c3.5,1.7,6.2,4.2,8.1,7.2c1.9,3,2.9,6.6,2.9,10.5
		v9.3L85.7,43.2L85.7,43.2z"/>
	<polygon class="st2" points="40.3,45.4 40.3,98.4 37.6,98.4 37.6,45.4 	"/>
	<path class="st10" d="M89.6,40.7h-2.3c-2.7,0-4.9,2.2-4.9,4.9v0h12v0C94.5,42.9,92.3,40.7,89.6,40.7L89.6,40.7z"/>
	<path class="st9" d="M74.1,44.8h20.4c11.2,0,20.4,9.2,20.4,20.4v48.3c0,4.4-3.6,8-8,8H89.8c2-2.1,3.3-5,3.3-8.2
		c0-6.6-5.3-11.9-11.9-11.9c-2.7,0-5.2,0.9-7.2,2.4L74.1,44.8L74.1,44.8z"/>
	<g>
		<path class="st10" d="M114.9,105.1v2.2h-4.6c-0.6,0-1.1-0.5-1.1-1.1c0-0.6,0.5-1.1,1.1-1.1L114.9,105.1L114.9,105.1z"/>
		<path class="st10" d="M114.9,109.6v2.2h-4.6c-0.6,0-1.1-0.5-1.1-1.1s0.5-1.1,1.1-1.1L114.9,109.6L114.9,109.6z"/>
		<path class="st10" d="M114.9,114c0,0.8-0.2,1.5-0.4,2.2h-4.1c-0.6,0-1.1-0.5-1.1-1.1c0-0.6,0.5-1.1,1.1-1.1H114.9z"/>
	</g>
	<path class="st7" d="M91.2,44.8h3.3c11.2,0,20.4,9.2,20.4,20.4v32.1h-3.3c-11.2,0-20.4-9.2-20.4-20.4V44.8L91.2,44.8z"/>
	<circle class="st7" cx="81.2" cy="113.2" r="8.3"/>
	<path class="st10" d="M90.1,44.8h2.2v32.1c0,5.3,2.2,10.1,5.7,13.7c3.5,3.5,8.3,5.7,13.7,5.7h3.3v2.2h-3.3
		c-5.9,0-11.3-2.4-15.2-6.3c-3.9-3.9-6.3-9.3-6.3-15.2L90.1,44.8L90.1,44.8z"/>
	<path class="st10" d="M82.2,51.9c1.4,0,2.5,1.1,2.5,2.5c0,1.4-1.1,2.5-2.5,2.5c-1.4,0-2.5-1.1-2.5-2.5C79.8,53,80.9,51.9,82.2,51.9
		z M82.2,71.6c1.4,0,2.5,1.1,2.5,2.5c0,1.4-1.1,2.5-2.5,2.5c-1.4,0-2.5-1.1-2.5-2.5C79.8,72.7,80.9,71.6,82.2,71.6z M82.2,61.7
		c1.4,0,2.5,1.1,2.5,2.5c0,1.4-1.1,2.5-2.5,2.5c-1.4,0-2.5-1.1-2.5-2.5C79.8,62.8,80.9,61.7,82.2,61.7z"/>
	<path class="st10" d="M40.5,95.5h-3.4c-4,0-7.2,4.4-7.2,9.7v0.1h17.7v-0.1C47.6,99.9,44.4,95.5,40.5,95.5z"/>
	<path class="st6" d="M43.7,100.1h-9.8c-11.5,0-20.8,9.3-20.8,20.8v0.2h51.4v-0.2C64.5,109.4,55.1,100.1,43.7,100.1L43.7,100.1z"/>
	<path class="st10" d="M13.7,115.9c-0.4,1.6-0.6,3.2-0.6,4.9h51.4c0-1.7-0.2-3.3-0.6-4.9H13.7L13.7,115.9z"/>
	<circle class="st10" cx="81.2" cy="113.2" r="4"/>
</g>
</svg>
