<?xml version="1.0" encoding="utf-8"?>
<!-- Generator: Adobe Illustrator 27.9.0, SVG Export Plug-In . SVG Version: 6.00 Build 0)  -->
<svg version="1.1" id="Layer_1" xmlns="http://www.w3.org/2000/svg" xmlns:xlink="http://www.w3.org/1999/xlink" x="0px" y="0px"
	 viewBox="0 0 128 128" style="enable-background:new 0 0 128 128;" xml:space="preserve">
<style type="text/css">
	.st0{fill-rule:evenodd;clip-rule:evenodd;fill:none;}
	.st1{fill-rule:evenodd;clip-rule:evenodd;fill:#F1892D;}
	.st2{fill:#C5D3E2;}
	.st3{fill:#39D5FF;}
	.st4{fill-rule:evenodd;clip-rule:evenodd;fill:#F9BF3B;}
	.st5{fill-rule:evenodd;clip-rule:evenodd;fill:#F5AB35;}
	.st6{fill-rule:evenodd;clip-rule:evenodd;fill:#39D5FF;}
	.st7{fill-rule:evenodd;clip-rule:evenodd;fill:#C5D3E2;}
	.st8{fill:#FFFFFF;}
	.st9{fill-rule:evenodd;clip-rule:evenodd;fill:#29C5FF;}
	.st10{fill-rule:evenodd;clip-rule:evenodd;fill:#0057A0;}
	.st11{fill:#F1892D;}
	.st12{fill-rule:evenodd;clip-rule:evenodd;fill:#ACBAC9;}
	.st13{fill-rule:evenodd;clip-rule:evenodd;fill:#FFFFFF;}
	.st14{fill-rule:evenodd;clip-rule:evenodd;fill:#D87400;}
	.st15{fill-rule:evenodd;clip-rule:evenodd;fill:#003780;}
	.st16{fill-rule:evenodd;clip-rule:evenodd;fill:#19B5FE;}
	.st17{fill-rule:evenodd;clip-rule:evenodd;fill:#1297E0;}
	.st18{fill:#0057A0;}
	.st19{fill:#F9BF3B;}
	.st20{fill-rule:evenodd;clip-rule:evenodd;fill:#DFECFA;}
	.st21{fill-rule:evenodd;clip-rule:evenodd;fill:#0077C0;}
	.st22{fill-rule:evenodd;clip-rule:evenodd;fill:#E6EEF7;}
	.st23{fill-rule:evenodd;clip-rule:evenodd;fill:#DBC2A4;}
	.st24{fill-rule:evenodd;clip-rule:evenodd;fill:#FFE3C1;}
	.st25{fill-rule:evenodd;clip-rule:evenodd;fill:#353535;}
	.st26{fill-rule:evenodd;clip-rule:evenodd;fill:#3C4A59;}
	.st27{fill-rule:evenodd;clip-rule:evenodd;fill:#6C7A89;}
	.st28{fill-rule:evenodd;clip-rule:evenodd;fill:#4C5A69;}
</style>
<rect class="st0" width="128" height="128"/>
<g>
	<path class="st10" d="M42.9,21.7h12.5v6.2c0,3.4-2.8,6.2-6.2,6.2l0,0c-3.4,0-6.2-2.8-6.2-6.2L42.9,21.7L42.9,21.7z"/>
	<rect x="47.5" y="29.9" class="st10" width="3.4" height="10.1"/>
	<path class="st6" d="M49.1,38.1L49.1,38.1c10.7,0,19.4,8.8,19.4,19.4v58.4c0,3.1-2.5,5.6-5.6,5.6H35.3c-3.1,0-5.6-2.5-5.6-5.6V57.5
		C29.7,46.9,38.4,38.1,49.1,38.1L49.1,38.1z"/>
	<polygon class="st7" points="68.6,69 68.6,97.5 29.7,97.5 29.7,69 	"/>
	<path class="st7" d="M68.6,31.6c-1.1,1.4-1.8,3.2-1.8,5.1c0,4.6,3.7,8.3,8.3,8.3c4.1,0,7.5-2.9,8.2-6.8c1,0.3,2.1,0.5,3.3,0.5
		c6.4,0,11.6-5.2,11.6-11.6c0-6.4-5.2-11.6-11.6-11.6c-1,0-1.9,0.1-2.8,0.4c0-5.1-4.2-9.3-9.3-9.3c-5.1,0-9.3,4.2-9.3,9.3
		c0,2.8,1.3,5.4,3.3,7.1L65.4,24L59.7,26l5.7,2.1l3.2,1.2L68.6,31.6L68.6,31.6z"/>
	<path class="st9" d="M36.5,69V57.5c0-7.7,4.5-14.4,11-17.5c1-0.5,2.1-0.9,3.3-1.2c0.6-0.2,1.1-0.3,1.7-0.4
		c-0.6-0.1-1.1-0.2-1.7-0.2c-0.6,0-1.1-0.1-1.7-0.1c-0.6,0-1.1,0-1.7,0.1c-9.9,0.9-17.8,9.2-17.8,19.4V69L36.5,69L36.5,69z"/>
	<polygon class="st12" points="36.5,69 29.7,69 29.7,97.5 36.5,97.5 	"/>
	<path class="st9" d="M36.5,97.5h-6.8v18.4c0,3.1,2.5,5.6,5.6,5.6h6.8c-3.1,0-5.6-2.5-5.6-5.6C36.5,115.9,36.5,97.5,36.5,97.5z"/>
</g>
</svg>
