<?xml version="1.0" encoding="utf-8"?>
<!-- Generator: Adobe Illustrator 27.9.0, SVG Export Plug-In . SVG Version: 6.00 Build 0)  -->
<svg version="1.1" id="Layer_1" xmlns="http://www.w3.org/2000/svg" xmlns:xlink="http://www.w3.org/1999/xlink" x="0px" y="0px"
	 viewBox="0 0 128 128" style="enable-background:new 0 0 128 128;" xml:space="preserve">
<style type="text/css">
	.st0{fill-rule:evenodd;clip-rule:evenodd;fill:none;}
	.st1{fill-rule:evenodd;clip-rule:evenodd;fill:#F1892D;}
	.st2{fill:#C5D3E2;}
	.st3{fill:#39D5FF;}
	.st4{fill-rule:evenodd;clip-rule:evenodd;fill:#F9BF3B;}
	.st5{fill-rule:evenodd;clip-rule:evenodd;fill:#F5AB35;}
	.st6{fill-rule:evenodd;clip-rule:evenodd;fill:#39D5FF;}
	.st7{fill-rule:evenodd;clip-rule:evenodd;fill:#C5D3E2;}
	.st8{fill:#FFFFFF;}
	.st9{fill-rule:evenodd;clip-rule:evenodd;fill:#29C5FF;}
	.st10{fill-rule:evenodd;clip-rule:evenodd;fill:#0057A0;}
	.st11{fill:#F1892D;}
	.st12{fill-rule:evenodd;clip-rule:evenodd;fill:#ACBAC9;}
	.st13{fill-rule:evenodd;clip-rule:evenodd;fill:#FFFFFF;}
	.st14{fill-rule:evenodd;clip-rule:evenodd;fill:#D87400;}
	.st15{fill-rule:evenodd;clip-rule:evenodd;fill:#003780;}
	.st16{fill-rule:evenodd;clip-rule:evenodd;fill:#19B5FE;}
	.st17{fill-rule:evenodd;clip-rule:evenodd;fill:#1297E0;}
	.st18{fill:#0057A0;}
	.st19{fill:#F9BF3B;}
	.st20{fill-rule:evenodd;clip-rule:evenodd;fill:#DFECFA;}
	.st21{fill-rule:evenodd;clip-rule:evenodd;fill:#0077C0;}
	.st22{fill-rule:evenodd;clip-rule:evenodd;fill:#E6EEF7;}
	.st23{fill-rule:evenodd;clip-rule:evenodd;fill:#DBC2A4;}
	.st24{fill-rule:evenodd;clip-rule:evenodd;fill:#FFE3C1;}
	.st25{fill-rule:evenodd;clip-rule:evenodd;fill:#353535;}
	.st26{fill-rule:evenodd;clip-rule:evenodd;fill:#3C4A59;}
	.st27{fill-rule:evenodd;clip-rule:evenodd;fill:#6C7A89;}
	.st28{fill-rule:evenodd;clip-rule:evenodd;fill:#4C5A69;}
</style>
<rect class="st0" width="128" height="128"/>
<g>
	<path class="st17" d="M102.7,90.5c-4.7,8.3-17.2,18.6-8.1,27.7h0c2.2,2.2,5.2,3.3,8.1,3.3c2.9,0,5.9-1.1,8.1-3.3l0,0
		C119.9,109,107.4,98.8,102.7,90.5z"/>
	<g id="_2957627489664">
		<path class="st4" d="M95.5,36.2V36c0-1.2-0.3-2.3-1-3.1c-0.7-0.9-1.5-1.3-2.5-1.2l-19.3,0.9c0.6,1.2,1,2.6,1,4
			c0,1.1-0.2,2.1-0.5,3L92,40.6c1,0,1.8-0.4,2.5-1.2C95.2,38.5,95.5,37.5,95.5,36.2L95.5,36.2z"/>
		<path class="st4" d="M38.5,36.2V36c0-1.2,0.3-2.3,1-3.1c0.7-0.9,1.5-1.3,2.5-1.2l19.3,0.9c-0.6,1.2-1,2.6-1,4c0,1.1,0.2,2.1,0.5,3
			L42,40.6c-1,0-1.8-0.4-2.5-1.2C38.9,38.5,38.5,37.5,38.5,36.2L38.5,36.2z"/>
	</g>
	<polygon class="st1" points="68.6,39.4 65.4,39.4 62.2,39.4 63.8,60.2 65.4,60.2 68.6,60.2 70.3,60.2 71.9,39.4 	"/>
	<path class="st6" d="M52,58.2H28c-1.8,0-3.3,1.5-3.3,3.3v5.2c0,1.8,1.5,3.3,3.3,3.3h24c1.8,0,3.3-1.5,3.3-3.3v-5.2
		C55.3,59.6,53.8,58.2,52,58.2z"/>
	<path class="st6" d="M19.2,79.5c8.6,0,15.5-6.9,15.5-15.5c0-8.6-6.9-15.5-15.5-15.5V79.5L19.2,79.5z"/>
	<path class="st6" d="M108.5,84.9v-15v-3.3v-4.8c0-2-1.6-3.6-3.6-3.6h-4.8h-3.3H67.1c-1.8,0-3.3,1.5-3.3,3.3v5.2
		c0,1.8,1.5,3.3,3.3,3.3h26.2c2,0,3.6,1.6,3.6,3.6v11.4L108.5,84.9L108.5,84.9z"/>
	<path class="st10" d="M95.7,84.3h14.1c1.4,0,2.5,0.6,2.5,1.3v2.2c0,0.7-1.1,1.3-2.5,1.3H95.7c-1.4,0-2.5-0.6-2.5-1.3v-2.2
		C93.2,84.9,94.3,84.3,95.7,84.3z"/>
	<path class="st6" d="M16.6,6.5L16.6,6.5c1.5,0,2.6,4.7,2.6,10.6v93.9c0,5.8-1.2,10.6-2.6,10.6l0,0c-1.5,0-2.6-4.7-2.6-10.6V17.1
		C14,11.2,15.1,6.5,16.6,6.5z"/>
	<circle class="st1" cx="67" cy="36.6" r="8.7"/>
	<path class="st17" d="M58.7,53.6h16.6c5.8,0,10.5,1.2,10.5,2.6v15.5c0,1.5-4.7,2.6-10.5,2.6H58.7c-5.8,0-10.5-1.2-10.5-2.6V56.2
		C48.2,54.8,52.9,53.6,58.7,53.6z"/>
</g>
</svg>
