<?xml version="1.0" encoding="utf-8"?>
<!-- Generator: Adobe Illustrator 27.9.0, SVG Export Plug-In . SVG Version: 6.00 Build 0)  -->
<svg version="1.1" id="Layer_1" xmlns="http://www.w3.org/2000/svg" xmlns:xlink="http://www.w3.org/1999/xlink" x="0px" y="0px"
	 viewBox="0 0 128 128" style="enable-background:new 0 0 128 128;" xml:space="preserve">
<style type="text/css">
	.st0{fill-rule:evenodd;clip-rule:evenodd;fill:none;}
	.st1{fill-rule:evenodd;clip-rule:evenodd;fill:#F1892D;}
	.st2{fill:#C5D3E2;}
	.st3{fill:#39D5FF;}
	.st4{fill-rule:evenodd;clip-rule:evenodd;fill:#F9BF3B;}
	.st5{fill-rule:evenodd;clip-rule:evenodd;fill:#F5AB35;}
	.st6{fill-rule:evenodd;clip-rule:evenodd;fill:#39D5FF;}
	.st7{fill-rule:evenodd;clip-rule:evenodd;fill:#C5D3E2;}
	.st8{fill:#FFFFFF;}
	.st9{fill-rule:evenodd;clip-rule:evenodd;fill:#29C5FF;}
	.st10{fill-rule:evenodd;clip-rule:evenodd;fill:#0057A0;}
	.st11{fill:#F1892D;}
	.st12{fill-rule:evenodd;clip-rule:evenodd;fill:#ACBAC9;}
	.st13{fill-rule:evenodd;clip-rule:evenodd;fill:#FFFFFF;}
	.st14{fill-rule:evenodd;clip-rule:evenodd;fill:#D87400;}
	.st15{fill-rule:evenodd;clip-rule:evenodd;fill:#003780;}
	.st16{fill-rule:evenodd;clip-rule:evenodd;fill:#19B5FE;}
	.st17{fill-rule:evenodd;clip-rule:evenodd;fill:#1297E0;}
	.st18{fill:#0057A0;}
	.st19{fill:#F9BF3B;}
	.st20{fill-rule:evenodd;clip-rule:evenodd;fill:#DFECFA;}
	.st21{fill-rule:evenodd;clip-rule:evenodd;fill:#0077C0;}
	.st22{fill-rule:evenodd;clip-rule:evenodd;fill:#E6EEF7;}
	.st23{fill-rule:evenodd;clip-rule:evenodd;fill:#DBC2A4;}
	.st24{fill-rule:evenodd;clip-rule:evenodd;fill:#FFE3C1;}
	.st25{fill-rule:evenodd;clip-rule:evenodd;fill:#353535;}
	.st26{fill-rule:evenodd;clip-rule:evenodd;fill:#3C4A59;}
	.st27{fill-rule:evenodd;clip-rule:evenodd;fill:#6C7A89;}
	.st28{fill-rule:evenodd;clip-rule:evenodd;fill:#4C5A69;}
</style>
<rect class="st0" width="128" height="128"/>
<g>
	<rect x="17.4" y="13.5" class="st6" width="56.8" height="58"/>
	<path class="st16" d="M30.3,20.2h30.9c3.4,0,6.2,2.8,6.2,6.2v32.1c0,3.4-2.8,6.2-6.2,6.2H30.3c-3.4,0-6.2-2.8-6.2-6.2V26.5
		C24.1,23.1,26.9,20.2,30.3,20.2z"/>
	<path class="st17" d="M17.4,6.5h56.7c2.7,0,4.9,1.6,4.9,3.5l0,0c0,1.9-2.2,3.5-4.9,3.5H17.4c-2.7,0-4.9-1.6-4.9-3.5l0,0
		C12.6,8.1,14.7,6.5,17.4,6.5z"/>
	<path class="st16" d="M11.8,76.2h67.9v13.2c0,7.2-5.9,13.2-13.2,13.2H25c-7.2,0-13.2-5.9-13.2-13.2L11.8,76.2L11.8,76.2z"/>
	<path class="st6" d="M13.3,77.7v11.8c0,6.5,5.3,11.8,11.8,11.8h41.6c6.5,0,11.8-5.3,11.8-11.8V77.7H13.3L13.3,77.7z"/>
	<rect x="25" y="102.6" class="st17" width="41.6" height="18.9"/>
	<polygon class="st21" points="25,102.6 66.6,102.6 66.6,106.1 25,106.1 	"/>
	<path class="st10" d="M14,71.5h63.5c3,0,5.4,1.8,5.4,3.9l0,0c0,2.2-2.4,3.9-5.4,3.9H14c-3,0-5.4-1.8-5.4-3.9l0,0
		C8.6,73.3,11.1,71.5,14,71.5z"/>
	<g id="_2957227637760">
		<path class="st1" d="M97,52.3h0.2c1.2,0,2.2,0.4,3,1.3c0.8,0.8,1.2,1.9,1.2,3l-1.6,43h-5.3l-1.6-43c0-1.2,0.3-2.2,1.2-3
			C94.8,52.7,95.9,52.3,97,52.3z"/>
		<path class="st10" d="M94.8,96.6h4.7c1.6,0,2.9,1.3,2.9,2.9v4.7H91.8v-4.7C91.8,97.9,93.2,96.6,94.8,96.6L94.8,96.6z"/>
		<path class="st4" d="M97.1,100.5c11.6,0,21,9.4,21,21H76.1C76.1,109.9,85.5,100.5,97.1,100.5L97.1,100.5z"/>
		<path class="st1" d="M76.1,119.2h42.1c0.7,0,1.2,0.5,1.2,1.2l0,0c0,0.6-0.5,1.2-1.2,1.2H76.1c-0.7,0-1.2-0.5-1.2-1.2l0,0
			C74.9,119.7,75.5,119.2,76.1,119.2z"/>
	</g>
</g>
</svg>
