<?xml version="1.0" encoding="utf-8"?>
<!-- Generator: Adobe Illustrator 27.9.0, SVG Export Plug-In . SVG Version: 6.00 Build 0)  -->
<svg version="1.1" id="Layer_1" xmlns="http://www.w3.org/2000/svg" xmlns:xlink="http://www.w3.org/1999/xlink" x="0px" y="0px"
	 viewBox="0 0 128 128" style="enable-background:new 0 0 128 128;" xml:space="preserve">
<style type="text/css">
	.st0{fill-rule:evenodd;clip-rule:evenodd;fill:none;}
	.st1{fill-rule:evenodd;clip-rule:evenodd;fill:#F1892D;}
	.st2{fill:#C5D3E2;}
	.st3{fill:#39D5FF;}
	.st4{fill-rule:evenodd;clip-rule:evenodd;fill:#F9BF3B;}
	.st5{fill-rule:evenodd;clip-rule:evenodd;fill:#F5AB35;}
	.st6{fill-rule:evenodd;clip-rule:evenodd;fill:#39D5FF;}
	.st7{fill-rule:evenodd;clip-rule:evenodd;fill:#C5D3E2;}
	.st8{fill:#FFFFFF;}
	.st9{fill-rule:evenodd;clip-rule:evenodd;fill:#29C5FF;}
	.st10{fill-rule:evenodd;clip-rule:evenodd;fill:#0057A0;}
	.st11{fill:#F1892D;}
	.st12{fill-rule:evenodd;clip-rule:evenodd;fill:#ACBAC9;}
	.st13{fill-rule:evenodd;clip-rule:evenodd;fill:#FFFFFF;}
	.st14{fill-rule:evenodd;clip-rule:evenodd;fill:#D87400;}
	.st15{fill-rule:evenodd;clip-rule:evenodd;fill:#003780;}
	.st16{fill-rule:evenodd;clip-rule:evenodd;fill:#19B5FE;}
	.st17{fill-rule:evenodd;clip-rule:evenodd;fill:#1297E0;}
	.st18{fill:#0057A0;}
	.st19{fill:#F9BF3B;}
	.st20{fill-rule:evenodd;clip-rule:evenodd;fill:#DFECFA;}
	.st21{fill-rule:evenodd;clip-rule:evenodd;fill:#0077C0;}
	.st22{fill-rule:evenodd;clip-rule:evenodd;fill:#E6EEF7;}
	.st23{fill-rule:evenodd;clip-rule:evenodd;fill:#DBC2A4;}
	.st24{fill-rule:evenodd;clip-rule:evenodd;fill:#FFE3C1;}
	.st25{fill-rule:evenodd;clip-rule:evenodd;fill:#353535;}
	.st26{fill-rule:evenodd;clip-rule:evenodd;fill:#3C4A59;}
	.st27{fill-rule:evenodd;clip-rule:evenodd;fill:#6C7A89;}
	.st28{fill-rule:evenodd;clip-rule:evenodd;fill:#4C5A69;}
</style>
<rect class="st0" width="128" height="128"/>
<g id="_2957553855376">
	<ellipse class="st7" cx="66.8" cy="114.8" rx="37.4" ry="6.7"/>
	<path class="st4" d="M74.4,43.9l0.1,14.3c0,1.3,1,2.3,2.3,2.3l15.5-0.1c1.3,0,2.3-1,2.3-2.3l-0.1-14.8c0-0.7-0.1-1.3-0.3-2L88.7,25
		c-0.2-2.1-3.7-2.4-10.2-1l0,8.6c0,1.1-0.2,2-0.7,2.9L75.1,41C74.6,42,74.4,42.9,74.4,43.9L74.4,43.9z"/>
	<path class="st1" d="M87.5,22.7l-7.6,0c-1.5,0-2.7,0.5-2.7,1.1l0,0c0,0.6,1.2,1.1,2.8,1.1l7.6,0c1.5,0,2.7-0.5,2.7-1.1l0,0
		C90.3,23.2,89.1,22.7,87.5,22.7z"/>
	<rect x="82.3" y="18.1" transform="matrix(1 -5.603733e-03 5.603733e-03 1 -0.1146 0.4696)" class="st1" width="3" height="5.2"/>
	<path class="st1" d="M89.5,19.5l-14.5,0.1c-0.6,0-1.2,0.1-1.6,0.3v0c-0.5,0.2-0.9,0.6-1.3,1l-2.5,2.8L67.8,22l2.5-2.8
		c0.6-0.7,1.4-1.3,2.2-1.6l0,0c0.8-0.4,1.7-0.6,2.6-0.6L89.5,17C89.5,17,89.5,19.5,89.5,19.5z"/>
	<path class="st1" d="M86.6,54.1l-4,0c-1.2,0-2.2-1-2.3-2.2l-0.1-9c0-1.2,1-2.2,2.2-2.3l4,0c1.2,0,2.2,1,2.3,2.2l0.1,9
		C88.8,53.1,87.8,54.1,86.6,54.1z"/>
	<path class="st4" d="M65.7,45.2v19.1c0,1.7-1.4,3-3,3H41.9c-1.7,0-3-1.4-3-3V44.5c0-1,0.1-1.8,0.4-2.7L46.4,20
		c0.3-2.8,4.9-3.3,13.7-1.4V30c0,1.4,0.3,2.6,0.9,3.9l3.7,7.4C65.4,42.6,65.7,43.8,65.7,45.2L65.7,45.2z"/>
	<path class="st1" d="M65.7,45.2v15.3H55.4c-1.1,0-1.9-0.9-1.9-1.9v-18c0-0.8,0.5-1.6,1.3-1.8l7.4-2.4l2.5,5
		C65.4,42.6,65.7,43.8,65.7,45.2L65.7,45.2z"/>
	<path class="st1" d="M48,17h10.1c2,0,3.7,0.7,3.7,1.5l0,0c0,0.8-1.6,1.5-3.7,1.5H48c-2,0-3.7-0.7-3.7-1.5l0,0
		C44.4,17.7,46,17,48,17z"/>
	<path class="st4" d="M58.8,9.8c0.8-2,2.4-2.1,4.9-0.1c0.9,8.5,2.7,14.5,5.4,18.1h-3.1C61,21.6,58.7,14,58.8,9.8L58.8,9.8z"/>
	<path class="st4" d="M60.1,6.5H46.3c-2.9,0-5.3,2.4-5.3,5.3s2.4,5.3,5.3,5.3h13.9v-3.4c0-0.7,0.2-1.2,0.7-1.7
		c0.5-0.5,1-0.7,1.7-0.7l5.6,0c0.3,0,0.6-0.1,0.8-0.3c0.2-0.2,0.3-0.5,0.3-0.8l0-2.5c0-0.3-0.1-0.6-0.3-0.8
		c-0.2-0.2-0.5-0.3-0.8-0.3L60.1,6.5L60.1,6.5z"/>
	<path class="st1" d="M67.2,11.3l1,0c0.3,0,0.6-0.1,0.8-0.3c0.2-0.2,0.3-0.5,0.3-0.8l0-2.5c0-0.3-0.1-0.6-0.3-0.8
		c-0.2-0.2-0.5-0.3-0.8-0.3h-1L67.2,11.3L67.2,11.3z"/>
	<path class="st6" d="M37.6,54.1h58.3l-4,56.6c-0.3,3.8-3.4,6.7-7.2,6.7H48.9c-3.8,0-7-2.9-7.2-6.7L37.6,54.1L37.6,54.1z"/>
	<path class="st9" d="M83.1,54.1h12.9l-4,56.6c-0.3,3.8-3.4,6.7-7.2,6.7H48.9c-3.8,0-7-2.9-7.2-6.7l-0.3-4.4
		C75.4,111.6,81.8,100.6,83.1,54.1z"/>
	<path class="st10" d="M36.8,47.2h59.9c1.8,0,3.3,1.5,3.3,3.4l0,0c0,1.9-1.5,3.4-3.3,3.4H36.8c-1.8,0-3.3-1.5-3.3-3.4l0,0
		C33.6,48.7,35,47.2,36.8,47.2z"/>
	<path class="st15" d="M83.2,47.2h13.3c1.9,0,3.4,1.5,3.4,3.4v0c0,1.9-1.5,3.4-3.4,3.4H83.1C83.1,51.8,83.2,49.5,83.2,47.2
		L83.2,47.2z"/>
	<path class="st10" d="M62,54.1h11.1v3.6c0,2-1.6,3.6-3.6,3.6h-4c-2,0-3.6-1.6-3.6-3.6V54.1z"/>
	<path class="st18" d="M69.5,60.3C55.7,78.7,43,86.7,34.9,88.3c-4.5,0.9-7.9-0.1-9.7-2.5c-1.8-2.4-1.9-5.9,0.2-10
		c2-3.8,6.1-8.4,12.8-13.2l0.4,5c-4.8,3.7-7.8,7.2-9.4,10.2c-1.3,2.5-1.4,4.3-0.7,5.4c0.8,1,2.7,1.4,5.5,0.9
		c7.3-1.4,18.9-8.9,32-26.3L69.5,60.3L69.5,60.3z"/>
</g>
</svg>
