<?xml version="1.0" encoding="utf-8"?>
<!-- Generator: Adobe Illustrator 27.9.0, SVG Export Plug-In . SVG Version: 6.00 Build 0)  -->
<svg version="1.1" id="Layer_1" xmlns="http://www.w3.org/2000/svg" xmlns:xlink="http://www.w3.org/1999/xlink" x="0px" y="0px"
	 viewBox="0 0 128 128" style="enable-background:new 0 0 128 128;" xml:space="preserve">
<style type="text/css">
	.st0{fill-rule:evenodd;clip-rule:evenodd;fill:none;}
	.st1{fill-rule:evenodd;clip-rule:evenodd;fill:#F1892D;}
	.st2{fill:#C5D3E2;}
	.st3{fill:#39D5FF;}
	.st4{fill-rule:evenodd;clip-rule:evenodd;fill:#F9BF3B;}
	.st5{fill-rule:evenodd;clip-rule:evenodd;fill:#F5AB35;}
	.st6{fill-rule:evenodd;clip-rule:evenodd;fill:#39D5FF;}
	.st7{fill-rule:evenodd;clip-rule:evenodd;fill:#C5D3E2;}
	.st8{fill:#FFFFFF;}
	.st9{fill-rule:evenodd;clip-rule:evenodd;fill:#29C5FF;}
	.st10{fill-rule:evenodd;clip-rule:evenodd;fill:#0057A0;}
	.st11{fill:#F1892D;}
	.st12{fill-rule:evenodd;clip-rule:evenodd;fill:#ACBAC9;}
	.st13{fill-rule:evenodd;clip-rule:evenodd;fill:#FFFFFF;}
	.st14{fill-rule:evenodd;clip-rule:evenodd;fill:#D87400;}
	.st15{fill-rule:evenodd;clip-rule:evenodd;fill:#003780;}
	.st16{fill-rule:evenodd;clip-rule:evenodd;fill:#19B5FE;}
	.st17{fill-rule:evenodd;clip-rule:evenodd;fill:#1297E0;}
	.st18{fill:#0057A0;}
	.st19{fill:#F9BF3B;}
	.st20{fill-rule:evenodd;clip-rule:evenodd;fill:#DFECFA;}
	.st21{fill-rule:evenodd;clip-rule:evenodd;fill:#0077C0;}
	.st22{fill-rule:evenodd;clip-rule:evenodd;fill:#E6EEF7;}
	.st23{fill-rule:evenodd;clip-rule:evenodd;fill:#DBC2A4;}
	.st24{fill-rule:evenodd;clip-rule:evenodd;fill:#FFE3C1;}
	.st25{fill-rule:evenodd;clip-rule:evenodd;fill:#353535;}
	.st26{fill-rule:evenodd;clip-rule:evenodd;fill:#3C4A59;}
	.st27{fill-rule:evenodd;clip-rule:evenodd;fill:#6C7A89;}
	.st28{fill-rule:evenodd;clip-rule:evenodd;fill:#4C5A69;}
</style>
<rect class="st0" width="128" height="128"/>
<g id="_2957227671504">
	<path class="st1" d="M38.1,70.8H89V31.9c0-14-11.4-25.4-25.4-25.4h0c-14,0-25.4,11.4-25.4,25.4C38.1,31.9,38.1,70.8,38.1,70.8z"/>
	<path class="st10" d="M53.2,74.5h21.6c16.9,0,30.7,13.8,30.7,30.7v16.3h-83v-16.3C22.5,88.3,36.3,74.5,53.2,74.5L53.2,74.5z"/>
	<path class="st4" d="M40.3,77.3c2.1-1,4.4-1.7,6.7-2.2v24.2c0,1.4,1.1,2.5,2.5,2.5h28.9c1.4,0,2.5-1.1,2.5-2.5V75.1
		c2.3,0.5,4.6,1.2,6.7,2.2v28.1v4.2v11.8H40.3v-11.8v-4.2C40.3,105.5,40.3,77.3,40.3,77.3z"/>
	<path class="st5" d="M81,121.5H47v-10.6c0-0.6,0.5-1.1,1.1-1.1h31.8c0.6,0,1.1,0.5,1.1,1.1L81,121.5L81,121.5z"/>
	<polygon class="st20" points="71.3,74.5 71.3,62 56.7,62 56.7,74.5 64,87 	"/>
	<path class="st7" d="M71.3,68.1v-6H56.7v6.5c2.1,0.9,4.4,1.4,6.8,1.4h0C66.3,69.9,68.9,69.2,71.3,68.1L71.3,68.1z"/>
	<path class="st13" d="M81,35.2v15.9c0,9.6-7.9,17.5-17.5,17.5h0c-9.6,0-17.5-7.9-17.5-17.5V39.3c1,0.1,2.1,0.2,3.2,0.2
		c9,0,16.5-4,18.3-9.3C70.6,32.9,75.4,34.8,81,35.2L81,35.2z"/>
	<g>
		<path class="st20" d="M82.5,41c3.2,0,5.1,1.4,5.1,4.5c0,3.2-1.9,7.9-5.1,7.9c-0.6,0-1.1-0.1-1.6-0.3c0.1-0.7,0.1-1.4,0.1-2.1v-9.8
			C81.5,41.1,82,41,82.5,41z"/>
		<path class="st20" d="M44.5,41c-3.2,0-5.1,1.4-5.1,4.5c0,3.2,1.9,7.9,5.1,7.9c0.6,0,1.1-0.1,1.6-0.3c-0.1-0.7-0.1-1.4-0.1-2.1
			v-9.8C45.6,41.1,45.1,41,44.5,41z"/>
	</g>
</g>
</svg>
